<?xml version="1.0" encoding="utf-8"?>
<!-- Generator: Adobe Illustrator 21.0.0, SVG Export Plug-In . SVG Version: 6.00 Build 0)  -->
<svg version="1.1" id="_x31_3f95f58-9b10-4e82-b9a2-2634369cd5bb"
	 xmlns="http://www.w3.org/2000/svg" xmlns:xlink="http://www.w3.org/1999/xlink" x="0px" y="0px" viewBox="0 0 903 817.8"
	 style="enable-background:new 0 0 903 817.8;" xml:space="preserve">
<style type="text/css">
	.st0{opacity:0.1;fill:#01C1C6;enable-background:new    ;}
	.st1{fill:url(#SVGID_1_);}
	.st2{fill:#4E5A86;}
	.st3{fill:#FFFFFF;}
	.st4{fill:none;stroke:#535461;stroke-width:2;stroke-miterlimit:10;}
	.st5{fill:#01C1C6;}
	.st6{opacity:0.2;fill:#FFFFFF;enable-background:new    ;}
</style>
<title>online world</title>
<path class="st0" d="M440.9,71.7c-32.3-4.5-62.6-18.2-93.1-29.8C313.9,29.1,279.3,18.8,244.2,11c-37.4-8.2-75.9-13.6-113.4-9.8
	s-74.1,17.7-98,42.9C-7.7,87-4.3,151.9,9.1,209.1C25,277,52.4,344.1,97.3,402c31.9,41.1,72,76.7,111.7,112
	c22.4,19.9,45.1,40,71.3,55.7c24.4,14.6,51.3,25,78.1,35.3c28.6,11,57.2,22.1,86.7,30.5c94.1,26.8,193.2,26,290,23.6
	c34.1-0.8,69.7-2.2,98.3-17.5c22.3-12,38.2-31.4,50.2-52.2c15.7-27.2,25.7-59.6,14.5-89.9c-16.5-44.7-73-71-91.8-115
	c-24.1-56.5,22.7-116.1,9.5-174.9c-5.5-24.4-21-46.6-37.5-67.2C739.1,93.2,686.9,48.4,616.8,55C557.4,60.5,503.2,80.3,440.9,71.7z"
	/>
<g>
	
		<linearGradient id="SVGID_1_" gradientUnits="userSpaceOnUse" x1="783.4003" y1="-12.4901" x2="783.4003" y2="734.65" gradientTransform="matrix(-1 0 0 -1 1238.1006 778.92)">
		<stop  offset="0" style="stop-color:#808080;stop-opacity:0.25"/>
		<stop  offset="0.54" style="stop-color:#808080;stop-opacity:0.12"/>
		<stop  offset="1" style="stop-color:#808080;stop-opacity:0.1"/>
	</linearGradient>
	<path class="st1" d="M298.2,44.3h313c17.1,0,30.9,13.8,31,30.9v685.3c-0.1,17.1-13.9,30.9-31,30.9h-313c-17.1,0-30.9-13.8-31-30.9
		V75.2C267.3,58.1,281.1,44.3,298.2,44.3z"/>
	<path class="st2" d="M612.5,788.5H296.9c-14.8,0-26.9-12-26.9-26.9V76.9c0-14.8,12-26.9,26.9-26.9h315.5c14.8,0,26.9,12,26.9,26.9
		v684.8C639.3,776.5,627.3,788.5,612.5,788.5z"/>
	<rect x="297.2" y="118.7" class="st3" width="314.9" height="601.2"/>
	<circle class="st3" cx="491.9" cy="84.3" r="2.9"/>
	<path class="st3" d="M476.6,87.2h-61c-0.6,0-1-0.4-1-1v-3.7c0-0.6,0.4-1,1-1h61c0.6,0,1,0.4,1,1v3.7
		C477.6,86.8,477.1,87.2,476.6,87.2z"/>
	<circle class="st3" cx="456.1" cy="748.5" r="20"/>
	<ellipse class="st0" cx="439.7" cy="768.8" rx="254" ry="49"/>
	<rect x="333.2" y="211.8" class="st0" width="243" height="325"/>
	<path class="st4" d="M654.9,780.2c0,0-14.5-73.4,15.3-123.6c12.6-21,18.1-45.5,15.6-69.9c-1.3-11.6-3.6-23-7-34.1"/>
	<path class="st5" d="M697.5,520.7c-0.8,8.8-19,32.7-19,32.7s-13.5-26.8-12.7-35.6c0.6-8.8,8.2-15.4,17-14.8
		c8.8,0.6,15.4,8.2,14.8,17C697.6,520.3,697.5,520.5,697.5,520.7L697.5,520.7z"/>
	<path class="st5" d="M719.3,571.6c-5.4,6.9-33.7,17.1-33.7,17.1s3.2-29.9,8.7-36.8c5.7-6.7,15.8-7.4,22.4-1.7
		C723,555.6,724.1,564.9,719.3,571.6L719.3,571.6z"/>
	<path class="st5" d="M710.5,654.4c-8.2,3.2-37.7-2.2-37.7-2.2s17.9-24.2,26.1-27.4c8.2-3.1,17.4,1.1,20.5,9.3
		C722.4,642.1,718.5,651.1,710.5,654.4z"/>
	<path class="st5" d="M689.8,715.5c-7.5,4.6-37.6,4.2-37.6,4.2s13.5-26.8,21.1-31.4c7.4-4.7,17.3-2.4,22,5s2.4,17.3-5,22
		C690.1,715.3,690,715.4,689.8,715.5L689.8,715.5z"/>
	<path class="st5" d="M652.1,587.4c5.7,6.7,34.4,15.7,34.4,15.7s-4.5-29.7-10.2-36.4c-5.6-6.8-15.7-7.7-22.4-2.1
		c-6.8,5.6-7.7,15.7-2.1,22.4C651.9,587.1,652,587.2,652.1,587.4z"/>
	<path class="st5" d="M628.8,659.1c7.5,4.7,37.5,4.7,37.5,4.7s-13.2-27-20.6-31.7c-7.4-4.8-17.2-2.6-22,4.8
		c-4.8,7.4-2.6,17.2,4.8,22C628.6,659,628.7,659.1,628.8,659.1z"/>
	<path class="st5" d="M615.7,732c6.6,5.8,36.2,11,36.2,11s-8.4-28.8-15-34.7c-6.5-6-16.5-5.5-22.5,0.9c-6,6.5-5.5,16.5,0.9,22.5
		C615.4,731.8,615.6,732,615.7,732L615.7,732z"/>
	<path class="st5" d="M402.7,157.7c0-20.9-17-37.9-37.9-37.9H158.5c-20.9,0-37.9,17-37.9,37.9s17,37.9,37.9,37.9l172.5-0.3
		l39.7,34.6v-34.8C389.1,192.2,402.7,176.3,402.7,157.7z"/>
	<circle class="st6" cx="165.1" cy="159" r="13.1"/>
	<circle class="st6" cx="209.5" cy="159" r="13.1"/>
	<circle class="st6" cx="253.9" cy="159" r="13.1"/>
	<rect x="332.7" y="588.8" class="st5" width="104" height="31"/>
	<rect x="471.7" y="588.8" class="st0" width="104" height="31"/>
</g>
</svg>
