<?xml version="1.0" encoding="utf-8"?>
<!-- Generator: Adobe Illustrator 21.0.0, SVG Export Plug-In . SVG Version: 6.00 Build 0)  -->
<svg version="1.1" id="_x31_58d9566-b2be-4f0f-bcdd-c9ed3d10c246"
	 xmlns="http://www.w3.org/2000/svg" xmlns:xlink="http://www.w3.org/1999/xlink" x="0px" y="0px" viewBox="0 0 847.3 714.5"
	 style="enable-background:new 0 0 847.3 714.5;" xml:space="preserve">
<style type="text/css">
	.st0{opacity:0.2;fill:#01C1C6;enable-background:new    ;}
	.st1{fill:none;stroke:#535461;stroke-width:2;stroke-miterlimit:10;}
	.st2{fill:#8ED16F;}
	.st3{opacity:0.3;enable-background:new    ;}
	.st4{opacity:0.3;}
	.st5{fill:#FFFFFF;}
	.st6{fill:url(#SVGID_1_);}
	.st7{fill:#01C1C6;}
	.st8{fill:#D6D6E3;}
	.st9{opacity:0.1;enable-background:new    ;}
	.st10{opacity:5.000000e-02;enable-background:new    ;}
</style>
<title>make_it_rain</title>
<path class="st0" d="M118,362c-11.1,3.9-21.4,13.2-24.2,26.2c-3.2,14.9,4.1,30,5.2,45.3c3.4,50.3-58.4,85.7-49.6,135.1
	c3.5,19.6,17.6,34.1,31.6,46c22.3,19,47.1,35.9,74.5,40.6c41.6,7.2,85.1-14,125.6-0.6c32.6,10.8,57.6,42.5,90,54.2
	c24.7,8.9,51.3,5.4,76.9,1.8c13.8-1.9,28.3-4.2,39.5-13.8c20.7-17.9,22-53.2,35.9-78.5c21.4-39,68.5-46.7,107.9-39.1
	c39.4,7.6,77.7,26.2,117.6,24.7c8.5-0.3,17.3-1.7,24.7-6.5c9.1-5.9,15.2-16.3,20.6-26.5c33.8-64.4,52.4-138,53.8-213.4
	c0.2-13-0.2-26.5-5.4-37.9c-6.7-14.5-19.9-23.1-33.2-28.9c-31.8-14-66.9-16.3-98-32.1c-30-15.2-54.4-41.9-80.5-64.8
	c-52.1-45.5-112.5-76.7-176.6-91.1c-15-3.4-30.6-5.8-45.5-1.9c-17.2,4.5-32,16.9-45.4,30.2c-35.5,35.5-63.9,79.4-96.6,118.3
	c-22.5,26.9-47.1,51.4-73.4,73.2c-12.1,10.1-24.9,22.1-38.4,29.5C142.6,359.2,131,357.5,118,362z"/>
<path class="st1" d="M311.9,46.1c0,0-38.6,51.3-11,111.2s-48.2,156-48.2,156"/>
<path class="st2" d="M329.2,26.9C326.1,40.1,311.4,48,311.4,48s-9.7-13.6-6.6-26.8s11-22.7,17.8-21.1S332.3,13.7,329.2,26.9z"/>
<ellipse transform="matrix(0.2267 -0.974 0.974 0.2267 221.4375 326.8305)" class="st2" cx="316.5" cy="24" rx="7.7" ry="2.9"/>
<ellipse transform="matrix(0.2267 -0.974 0.974 0.2267 221.4375 326.8305)" class="st3" cx="316.5" cy="24" rx="7.7" ry="2.9"/>
<path class="st2" d="M322.5,85.6c-12.8,4.6-27.4-3.5-27.4-3.5s6.1-15.5,18.9-20.1s25-3,27.4,3.5S335.3,81,322.5,85.6z"/>
<ellipse transform="matrix(0.9404 -0.3401 0.3401 0.9404 -5.7761 112.4865)" class="st2" cx="318" cy="72.7" rx="7.7" ry="2.9"/>
<ellipse transform="matrix(0.9404 -0.3401 0.3401 0.9404 -5.7761 112.4865)" class="st3" cx="318" cy="72.7" rx="7.7" ry="2.9"/>
<path class="st2" d="M319.6,132.4c-12.8,4.6-27.4-3.5-27.4-3.5s6.1-15.5,18.9-20.1s25-3,27.4,3.5S332.3,127.8,319.6,132.4z"/>
<ellipse transform="matrix(0.9409 -0.3387 0.3387 0.9409 -22.0827 113.8574)" class="st2" cx="315.1" cy="120.2" rx="7.7" ry="2.9"/>
<ellipse transform="matrix(0.9409 -0.3387 0.3387 0.9409 -22.0827 113.8574)" class="st3" cx="315.1" cy="120.2" rx="7.7" ry="2.9"/>
<path class="st2" d="M334.5,187.3c-12.8,4.6-27.4-3.5-27.4-3.5s6.1-15.5,18.9-20.1s25-3,27.4,3.5S347.2,182.7,334.5,187.3z"/>
<ellipse transform="matrix(0.9409 -0.3387 0.3387 0.9409 -39.796 122.1539)" class="st2" cx="330.1" cy="175.1" rx="7.7" ry="2.9"/>
<ellipse transform="matrix(0.9409 -0.3387 0.3387 0.9409 -39.796 122.1539)" class="st3" cx="330.1" cy="175.1" rx="7.7" ry="2.9"/>
<path class="st2" d="M324.8,237.4c-12.8,4.6-27.4-3.5-27.4-3.5s6.1-15.5,18.9-20.1s25-3,27.4,3.5S337.5,232.9,324.8,237.4z"/>
<ellipse transform="matrix(0.9404 -0.3401 0.3401 0.9404 -57.2301 122.3537)" class="st2" cx="320.4" cy="224.4" rx="7.7" ry="2.9"/>
<ellipse transform="matrix(0.9404 -0.3401 0.3401 0.9404 -57.2301 122.3537)" class="st3" cx="320.4" cy="224.4" rx="7.7" ry="2.9"/>
<path class="st2" d="M264.9,98.9c9.4,9.8,26.1,9,26.1,9s1.4-16.6-8-26.4s-21.1-13.8-26.1-9S255.5,89.2,264.9,98.9z"/>
<ellipse transform="matrix(0.7195 -0.6945 0.6945 0.7195 14.5106 215.7226)" class="st2" cx="274.3" cy="89.9" rx="2.9" ry="7.7"/>
<ellipse transform="matrix(0.7195 -0.6945 0.6945 0.7195 14.5106 215.7226)" class="st3" cx="274.3" cy="89.9" rx="2.9" ry="7.7"/>
<path class="st2" d="M259.5,253.9c9.4,9.8,26.1,9,26.1,9s1.4-16.6-8-26.4s-21.1-13.8-26.1-9S250.1,244.1,259.5,253.9z"/>
<ellipse transform="matrix(0.7195 -0.6945 0.6945 0.7195 -94.6661 255.4401)" class="st2" cx="268.9" cy="244.9" rx="2.9" ry="7.7"/>
<ellipse transform="matrix(0.7195 -0.6945 0.6945 0.7195 -94.6661 255.4401)" class="st3" cx="268.9" cy="244.9" rx="2.9" ry="7.7"/>
<path class="st2" d="M272,153.7c12.1,6.1,27.6-0.2,27.6-0.2s-4.3-16.1-16.4-22.2c-12.1-6.1-24.5-6-27.6,0.2
	C252.5,137.8,259.9,147.6,272,153.7z"/>
<ellipse transform="matrix(0.4465 -0.8948 0.8948 0.4465 26.6587 327.179)" class="st2" cx="277.8" cy="142" rx="2.9" ry="7.7"/>
<ellipse transform="matrix(0.4465 -0.8948 0.8948 0.4465 26.6587 327.179)" class="st3" cx="277.8" cy="142" rx="2.9" ry="7.7"/>
<path class="st2" d="M277.1,208.3c12.1,6.1,27.6-0.2,27.6-0.2s-4.3-16.1-16.4-22.2s-24.5-6-27.6,0.2S265,202.3,277.1,208.3z"/>
<ellipse transform="matrix(0.4465 -0.8948 0.8948 0.4465 -19.3562 361.9451)" class="st2" cx="282.9" cy="196.6" rx="2.9" ry="7.7"/>
<ellipse transform="matrix(0.4465 -0.8948 0.8948 0.4465 -19.3562 361.9451)" class="st3" cx="282.9" cy="196.6" rx="2.9" ry="7.7"/>
<path class="st2" d="M125.7,156.5c0,0,70.6,70.6,30.7,175.3s68.3,278.9,68.3,278.9s-1.2-0.2-3.3-0.5
	c-145-25.6-217-191.4-136.4-314.6C115,249.8,139.6,196.1,125.7,156.5z"/>
<path class="st2" d="M0,442c0,0,80.6-12.8,87.9,59.4s154.9,82.2,154.9,82.2s-1,0.7-2.8,1.8c-121.8,80-238.3,50.9-220.7-55.3
	C25.8,490.6,25.3,451,0,442z"/>
<g class="st4">
	<path class="st5" d="M0,442c0,0,80.6-12.8,87.9,59.4s154.9,82.2,154.9,82.2s-1,0.7-2.8,1.8c-121.8,80-238.3,50.9-220.7-55.3
		C25.8,490.6,25.3,451,0,442z"/>
</g>
<ellipse class="st2" cx="105.3" cy="383.3" rx="22.2" ry="57.8"/>
<ellipse class="st3" cx="105.3" cy="383.3" rx="22.2" ry="57.8"/>
<ellipse transform="matrix(0.7071 -0.7071 0.7071 0.7071 -379.4493 223.2972)" class="st2" cx="79.8" cy="569.7" rx="14.9" ry="33.2"/>
<ellipse transform="matrix(0.7071 -0.7071 0.7071 0.7071 -379.4493 223.2972)" class="st3" cx="79.8" cy="569.7" rx="14.9" ry="33.2"/>
<linearGradient id="SVGID_1_" gradientUnits="userSpaceOnUse" x1="574.72" y1="2.69" x2="574.72" y2="357.8" gradientTransform="matrix(1 0 0 -1 -113 623.26)">
	<stop  offset="0" style="stop-color:#808080;stop-opacity:0.25"/>
	<stop  offset="0.54" style="stop-color:#808080;stop-opacity:0.12"/>
	<stop  offset="1" style="stop-color:#808080;stop-opacity:0.1"/>
</linearGradient>
<path class="st6" d="M723.9,265.5H199.5c-13.2,0-23.9,10.7-23.9,23.9v0v307.3c0,13.2,10.7,23.9,23.9,23.9h0h524.3
	c13.2,0,23.9-10.7,23.9-23.9c0,0,0,0,0,0V289.4C747.8,276.2,737.1,265.5,723.9,265.5L723.9,265.5z"/>
<path class="st7" d="M207.2,269.6h509c13.7,0,24.8,11.1,24.8,24.8v297.1c0,13.7-11.1,24.8-24.8,24.8h-509
	c-13.7,0-24.8-11.1-24.8-24.8V294.5C182.4,280.7,193.5,269.6,207.2,269.6z"/>
<rect x="182.4" y="330.3" class="st7" width="558.7" height="63.6"/>
<rect x="182.4" y="330.3" class="st3" width="558.7" height="63.6"/>
<rect x="235.4" y="441.1" class="st8" width="452.7" height="30.8"/>
<circle class="st7" cx="272.9" cy="549" r="44.3"/>
<circle class="st3" cx="272.9" cy="549" r="44.3"/>
<rect x="699.7" y="194.8" transform="matrix(0.1826 -0.9832 0.9832 0.1826 386.1285 872.7034)" class="st2" width="36.3" height="18.6"/>
<ellipse transform="matrix(0.1826 -0.9832 0.9832 0.1826 386.2252 873.0471)" class="st2" cx="718.2" cy="204.2" rx="7.7" ry="3.8"/>
<ellipse transform="matrix(0.1826 -0.9832 0.9832 0.1826 386.2252 873.0471)" class="st9" cx="718.2" cy="204.2" rx="7.7" ry="3.8"/>
<rect x="702.9" y="270.2" transform="matrix(0.1826 -0.9832 0.9832 0.1826 314.5651 937.4147)" class="st2" width="36.3" height="18.6"/>
<ellipse transform="matrix(0.1826 -0.9832 0.9832 0.1826 314.6622 937.7426)" class="st2" cx="721.3" cy="279.6" rx="7.7" ry="3.8"/>
<ellipse transform="matrix(0.1826 -0.9832 0.9832 0.1826 314.6622 937.7426)" class="st9" cx="721.3" cy="279.6" rx="7.7" ry="3.8"/>
<rect x="644.5" y="109" transform="matrix(0.4759 -0.8795 0.8795 0.4759 230.7635 641.6885)" class="st2" width="18.6" height="36.3"/>
<ellipse transform="matrix(0.4789 -0.8779 0.8779 0.4789 230.0597 643.3773)" class="st2" cx="656.9" cy="127.9" rx="3.8" ry="7.7"/>
<ellipse transform="matrix(0.4789 -0.8779 0.8779 0.4789 230.0597 643.3773)" class="st9" cx="656.9" cy="127.9" rx="3.8" ry="7.7"/>
<rect x="574.3" y="432.6" transform="matrix(0.4759 -0.8795 0.8795 0.4759 -90.5373 749.5348)" class="st2" width="18.6" height="36.3"/>
<ellipse transform="matrix(0.4759 -0.8795 0.8795 0.4759 -90.7841 749.5588)" class="st2" cx="583.6" cy="451" rx="3.8" ry="7.7"/>
<ellipse transform="matrix(0.4759 -0.8795 0.8795 0.4759 -90.7841 749.5588)" class="st9" cx="583.6" cy="451" rx="3.8" ry="7.7"/>
<rect x="531.4" y="165.6" transform="matrix(0.4759 -0.8795 0.8795 0.4759 121.7737 571.8659)" class="st2" width="18.6" height="36.3"/>
<ellipse transform="matrix(0.4759 -0.8795 0.8795 0.4759 121.5353 571.8744)" class="st2" cx="540.6" cy="184" rx="3.8" ry="7.6"/>
<ellipse transform="matrix(0.4759 -0.8795 0.8795 0.4759 121.5353 571.8744)" class="st9" cx="540.6" cy="184" rx="3.8" ry="7.6"/>
<rect x="585.2" y="109" transform="matrix(0.4759 -0.8795 0.8795 0.4759 199.6989 589.5477)" class="st2" width="18.6" height="36.3"/>
<ellipse transform="matrix(0.4759 -0.8795 0.8795 0.4759 199.4604 589.5562)" class="st2" cx="594.4" cy="127.4" rx="3.8" ry="7.6"/>
<ellipse transform="matrix(0.4759 -0.8795 0.8795 0.4759 199.4604 589.5562)" class="st9" cx="594.4" cy="127.4" rx="3.8" ry="7.6"/>
<rect x="620.1" y="178" transform="matrix(0.9941 -0.1087 0.1087 0.9941 -17.5918 69.5755)" class="st2" width="18.6" height="36.3"/>
<ellipse transform="matrix(0.9941 -0.1087 0.1087 0.9941 -17.5966 69.5491)" class="st2" cx="629.2" cy="196.2" rx="3.8" ry="7.6"/>
<ellipse transform="matrix(0.9941 -0.1087 0.1087 0.9941 -17.5966 69.5491)" class="st9" cx="629.2" cy="196.2" rx="3.8" ry="7.6"/>
<rect x="747.1" y="375.7" transform="matrix(0.9941 -0.1087 0.1087 0.9941 -38.3341 84.5557)" class="st2" width="18.6" height="36.3"/>
<ellipse transform="matrix(0.9941 -0.1087 0.1087 0.9941 -38.3389 84.5302)" class="st2" cx="756.2" cy="393.9" rx="3.8" ry="7.6"/>
<ellipse transform="matrix(0.9941 -0.1087 0.1087 0.9941 -38.3389 84.5302)" class="st9" cx="756.2" cy="393.9" rx="3.8" ry="7.6"/>
<rect x="566.4" y="252.5" transform="matrix(0.4759 -0.8795 0.8795 0.4759 63.6731 648.1459)" class="st2" width="18.6" height="36.3"/>
<ellipse transform="matrix(0.4759 -0.8795 0.8795 0.4759 63.4197 648.1564)" class="st2" cx="575.6" cy="270.9" rx="3.8" ry="7.6"/>
<ellipse transform="matrix(0.4759 -0.8795 0.8795 0.4759 63.4197 648.1564)" class="st9" cx="575.6" cy="270.9" rx="3.8" ry="7.6"/>
<rect x="485.7" y="229.5" transform="matrix(0.4759 -0.8795 0.8795 0.4759 41.6708 565.1661)" class="st2" width="18.6" height="36.3"/>
<ellipse transform="matrix(0.4789 -0.8779 0.8779 0.4789 40.8207 566.5497)" class="st2" cx="497.6" cy="248.9" rx="3.8" ry="7.7"/>
<ellipse transform="matrix(0.4789 -0.8779 0.8779 0.4789 40.8207 566.5497)" class="st9" cx="497.6" cy="248.9" rx="3.8" ry="7.7"/>
<rect x="459.9" y="617.2" transform="matrix(0.4759 -0.8795 0.8795 0.4759 -312.8436 745.6401)" class="st2" width="18.6" height="36.3"/>
<ellipse transform="matrix(0.4759 -0.8795 0.8795 0.4759 -313.0869 745.65)" class="st2" cx="469.1" cy="635.5" rx="3.8" ry="7.7"/>
<ellipse transform="matrix(0.4759 -0.8795 0.8795 0.4759 -313.0869 745.65)" class="st9" cx="469.1" cy="635.5" rx="3.8" ry="7.7"/>
<rect x="441.3" y="619.1" transform="matrix(0.1824 -0.9832 0.9832 0.1824 -258.17 964.0851)" class="st2" width="18.6" height="36.3"/>
<rect x="441.3" y="619.1" transform="matrix(0.1824 -0.9832 0.9832 0.1824 -258.17 964.0851)" class="st10" width="18.6" height="36.3"/>
<ellipse transform="matrix(0.1824 -0.9832 0.9832 0.1824 -258.4279 964.2394)" class="st2" cx="450.6" cy="637.5" rx="3.8" ry="7.7"/>
<ellipse transform="matrix(0.1824 -0.9832 0.9832 0.1824 -258.4279 964.2394)" class="st9" cx="450.6" cy="637.5" rx="3.8" ry="7.7"/>
<rect x="444.6" y="630.1" transform="matrix(0.1824 -0.9832 0.9832 0.1824 -266.2403 976.3618)" class="st2" width="18.6" height="36.3"/>
<ellipse transform="matrix(0.1824 -0.9832 0.9832 0.1824 -266.5063 976.506)" class="st2" cx="453.9" cy="648.5" rx="3.8" ry="7.7"/>
<ellipse transform="matrix(0.1824 -0.9832 0.9832 0.1824 -266.5063 976.506)" class="st9" cx="453.9" cy="648.5" rx="3.8" ry="7.7"/>
<rect x="497.6" y="664.3" transform="matrix(0.4759 -0.8795 0.8795 0.4759 -334.5316 803.4801)" class="st2" width="18.6" height="36.3"/>
<ellipse transform="matrix(0.4759 -0.8795 0.8795 0.4759 -334.7695 803.4988)" class="st2" cx="506.8" cy="682.7" rx="3.8" ry="7.7"/>
<ellipse transform="matrix(0.4759 -0.8795 0.8795 0.4759 -334.7695 803.4988)" class="st9" cx="506.8" cy="682.7" rx="3.8" ry="7.7"/>
<rect x="479" y="666.2" transform="matrix(0.1824 -0.9832 0.9832 0.1824 -273.6651 1039.6624)" class="st2" width="18.6" height="36.3"/>
<rect x="479" y="666.2" transform="matrix(0.1824 -0.9832 0.9832 0.1824 -273.6651 1039.6624)" class="st10" width="18.6" height="36.3"/>
<ellipse transform="matrix(0.1824 -0.9832 0.9832 0.1824 -273.9312 1039.8068)" class="st2" cx="488.3" cy="684.6" rx="3.8" ry="7.7"/>
<ellipse transform="matrix(0.1824 -0.9832 0.9832 0.1824 -273.9312 1039.8068)" class="st9" cx="488.3" cy="684.6" rx="3.8" ry="7.7"/>
<rect x="482.3" y="677.2" transform="matrix(0.1824 -0.9832 0.9832 0.1824 -281.7484 1051.9465)" class="st2" width="18.6" height="36.3"/>
<ellipse transform="matrix(0.1824 -0.9832 0.9832 0.1824 -282.0063 1052.1007)" class="st2" cx="491.6" cy="695.6" rx="3.8" ry="7.7"/>
<ellipse transform="matrix(0.1824 -0.9832 0.9832 0.1824 -282.0063 1052.1007)" class="st9" cx="491.6" cy="695.6" rx="3.8" ry="7.7"/>
<rect x="554.2" y="633.9" transform="matrix(0.4759 -0.8795 0.8795 0.4759 -278.1908 837.2997)" class="st2" width="18.6" height="36.3"/>
<ellipse transform="matrix(0.4759 -0.8795 0.8795 0.4759 -278.4345 837.2994)" class="st2" cx="563.4" cy="652.3" rx="3.8" ry="7.7"/>
<ellipse transform="matrix(0.4759 -0.8795 0.8795 0.4759 -278.4345 837.2994)" class="st9" cx="563.4" cy="652.3" rx="3.8" ry="7.7"/>
<rect x="535.5" y="635.9" transform="matrix(0.1824 -0.9832 0.9832 0.1824 -197.5862 1070.4348)" class="st2" width="18.6" height="36.3"/>
<rect x="535.5" y="635.9" transform="matrix(0.1824 -0.9832 0.9832 0.1824 -197.5862 1070.4348)" class="st10" width="18.6" height="36.3"/>
<ellipse transform="matrix(0.1824 -0.9832 0.9832 0.1824 -197.8524 1070.5793)" class="st2" cx="544.8" cy="654.3" rx="3.8" ry="7.7"/>
<ellipse transform="matrix(0.1824 -0.9832 0.9832 0.1824 -197.8524 1070.5793)" class="st9" cx="544.8" cy="654.3" rx="3.8" ry="7.7"/>
<rect x="538.9" y="646.9" transform="matrix(0.1824 -0.9832 0.9832 0.1824 -205.6677 1082.7178)" class="st2" width="18.6" height="36.3"/>
<ellipse transform="matrix(0.1824 -0.9832 0.9832 0.1824 -205.9275 1082.8733)" class="st2" cx="548.2" cy="665.3" rx="3.8" ry="7.7"/>
<ellipse transform="matrix(0.1824 -0.9832 0.9832 0.1824 -205.9275 1082.8733)" class="st9" cx="548.2" cy="665.3" rx="3.8" ry="7.7"/>
</svg>
