<?xml version="1.0" encoding="utf-8"?>
<!-- Generator: Adobe Illustrator 21.0.0, SVG Export Plug-In . SVG Version: 6.00 Build 0)  -->
<svg version="1.1" id="_x32_cf41747-0c0c-4d70-aad4-093c093adad4"
	 xmlns="http://www.w3.org/2000/svg" xmlns:xlink="http://www.w3.org/1999/xlink" x="0px" y="0px" viewBox="0 0 945.1 813.2"
	 style="enable-background:new 0 0 945.1 813.2;" xml:space="preserve">
<style type="text/css">
	.st0{opacity:0.1;fill:#01C1C6;enable-background:new    ;}
	.st1{fill:#01C1C6;}
	.st2{fill:#444053;}
	.st3{fill:#FFFFFF;}
	.st4{opacity:0.1;enable-background:new    ;}
	.st5{opacity:0.3;fill:#FFFFFF;enable-background:new    ;}
	.st6{fill:#3A3768;}
	.st7{opacity:0.45;fill:#FFFFFF;enable-background:new    ;}
	.st8{fill:#FFD037;}
	.st9{fill:#65617D;}
	.st10{fill:#9D9CB5;}
</style>
<title>book lover</title>
<path class="st0" d="M554.7,137.4c-59.7-2.3-116.6-23.1-171-46S275.6,43.2,217.3,31.1c-37.5-7.8-80.4-8.9-110.6,12.9
	c-29.1,21-38.5,57.2-43.5,90.7c-3.8,25.3-6,51.8,4.4,75.5c7.2,16.4,20.1,30.2,28.9,46c30.9,54.7,9.1,122.2-24.4,175.6
	c-15.7,25.1-33.9,49-46,75.7S8.3,564.8,18.9,592c10.5,27,35.6,47.2,62.7,61.5c55.1,29,120,37.2,183.3,41.9
	c140.1,10.4,281,5.9,421.5,1.4c52-1.7,104.2-3.4,155.4-12.1c28.4-4.8,57.7-12.5,78.4-31c26.2-23.5,32.7-63.4,15.1-92.9
	c-29.4-49.5-110.8-61.8-131.4-114.9c-11.3-29.2,0.3-61.8,16.8-88.9c35.3-58.2,94.4-109.2,97.6-175.7c2.1-45.7-26.3-91.4-70.3-113
	c-46.1-22.7-110-19.9-144,17.6C668.9,124.6,607.4,139.4,554.7,137.4z"/>
<polygon class="st1" points="465,690.5 122.7,688.8 88.7,609.1 209,600.3 188,512.9 425.9,482 198.1,402.9 218.2,398.1 584.5,457.8 
	564.3,594.3 535.5,669.3 "/>
<path class="st1" d="M128,655.4c0,0,21-3.4,33.6,11.5c0,0-9.2,7.3-29.1-2.8L128,655.4z"/>
<path class="st1" d="M125.8,655.1c0,0-13.4,16.5-6.8,34.8c0,0,10.9-4.4,12.1-26.6L125.8,655.1z"/>
<path class="st1" d="M113.7,628c0,0,8.4-15.4,42,6.2c0,0-4.5,10.4-19.3,9.5S117.6,636.1,113.7,628z"/>
<path class="st1" d="M111.6,626.9c0,0-17.4-2-19.1,37.9c0,0,11.1,2.3,18.9-10.3S116,634.7,111.6,626.9z"/>
<path class="st1" d="M101.4,595c0,0,9.8-27.2,45.4-7.8c0,0-8.1,24.9-41.7,17.1L101.4,595z"/>
<path class="st1" d="M90.5,554.4c0,0,18.5-27.4,51.2-2c0,0-11.5,25.8-48.4,11.8L90.5,554.4z"/>
<path class="st1" d="M86.6,515.8c0,0,21.6-25.2,54,0c0,0-20.4,22.1-54,6.4V515.8z"/>
<path class="st1" d="M83.2,478.3c0,0,21.8-26.3,52.9-1.4c0,0-24.6,23.2-52.9,7.6V478.3z"/>
<path class="st1" d="M85.2,445c0,0,23-33.9,52.1-10.9c0,0-24.6,29.1-52.1,17.4V445z"/>
<path class="st1" d="M90.5,406c0,0,24.4-33.6,52.6-7.8c0,0-28.8,29.1-52.6,14V406z"/>
<path class="st1" d="M98.6,371.2c0,0,28.8-31.6,54-19c0,0-30.1,33.5-55.3,27.4L98.6,371.2z"/>
<path class="st1" d="M108.7,338.3c0,0,33.3-38.7,52.6-25.8c0,0-24.5,30-55,33L108.7,338.3z"/>
<path class="st1" d="M123.2,300c0,0,29.1-31.6,50.4-23.7c0,0-24.9,32.8-54.3,33.6L123.2,300z"/>
<path class="st1" d="M136.4,264.2c0,0,32.2-30.2,46.2-24.9c0,0-23.2,33.6-47.6,31.6L136.4,264.2z"/>
<path class="st1" d="M149.3,231.2c0,0,27.7-36.1,42.9-33.3c0,0-16.8,32.2-42.9,37V231.2z"/>
<path class="st1" d="M163.3,186.6c0,0,24.5-27.7,37.7-27.6c0,0-19.3,37-38.8,36.7L163.3,186.6z"/>
<path class="st1" d="M171.5,157l23.7-57.7c0,0,1.2,52.1-26.7,68.4L171.5,157z"/>
<path class="st1" d="M181.2,93.4c0,0,3.9-48.2,1.4-52.1c0,0,16.9,40.1-1.6,73.4L181.2,93.4z"/>
<path class="st1" d="M100.5,594.4c0,0-24.5-15.2-40.4,22c0,0,21.8,14.5,43.3-12.5L100.5,594.4z"/>
<path class="st1" d="M89.7,552.9c0,0-30.1-13.7-44.7,25.1c0,0,23.3,16,47.4-15.3L89.7,552.9z"/>
<path class="st1" d="M85.2,518.1c0,0-21.6-25.2-54,0c0,0,20.4,22.1,54,6.4V518.1z"/>
<path class="st1" d="M82.5,478.3c0,0-21.8-26.3-52.9-1.4c0,0,24.6,23.2,52.9,7.6V478.3z"/>
<path class="st1" d="M85.2,445.9c0,0-15.3-38-48.6-21.6c0,0,18,33.7,47.3,27.9L85.2,445.9z"/>
<path class="st1" d="M92.4,405.8c0,0-15.2-38.6-49-20.7c0,0,20.7,35.4,47.5,26.7L92.4,405.8z"/>
<path class="st1" d="M101.9,371.4c0,0-6-42.3-34-46.1c0,0,5.9,44.6,30.2,53.8L101.9,371.4z"/>
<path class="st1" d="M109.4,338.3c0,0-2.3-51-25.5-52.8c0,0,0.8,38.7,22.9,60L109.4,338.3z"/>
<path class="st1" d="M125.6,298.6c0,0-6.9-42.4-29-47.6c0,0,2.7,41.1,26.8,58L125.6,298.6z"/>
<path class="st1" d="M139,264.6c0,0-0.2-44.2-13.7-50.7c0,0-8.4,40,9.8,56.3L139,264.6z"/>
<path class="st1" d="M150.3,230.7c0,0-1.9-45.5-15.9-51.9c0,0-4.8,36,13.8,54.9L150.3,230.7z"/>
<path class="st1" d="M165.2,190.3c0,0-0.1-37-10.1-45.7c0,0-9.9,40.5,4.9,53.1L165.2,190.3z"/>
<path class="st1" d="M170.4,155.2l-9.7-61.6c0,0-13.2,50.5,10.2,72.7L170.4,155.2z"/>
<path class="st1" d="M172.3,93.9c0,0-24.9-41.4-24.4-46c0,0,2.6,43.4,34,65L172.3,93.9z"/>
<path class="st1" d="M175.2,81.7c0,0-23.5-58.8-34.2-63.6c0,0,33.6,17.1,36.1,61.9L175.2,81.7z"/>
<path class="st2" d="M162.1,196l-1.6-0.5c19.9-64.7,24.8-106,13.9-116.3l1.1-1.2C187.1,88.9,182.5,129.7,162.1,196z"/>
<path class="st2" d="M107.5,347.6l-2.4-0.9c2.1-5.9,4.4-12,6.8-17.9c20.7-51.6,38.4-99.7,49.7-136.6l2.1-1
	c-11.3,37-28.7,86.8-49.4,138.5C111.8,335.7,109.6,341.6,107.5,347.6z"/>
<path class="st2" d="M157.6,703.9c-0.3-0.3-32.5-36.6-54.9-98.4C89.5,569.2,82.2,531.2,81,492.7c-1.5-48.1,8.6-101.9,25.9-150.7
	l1.9,2.2c-38.8,109.6-23.4,203.5-2.9,260c22.2,61.3,54,97.1,54.3,97.5L157.6,703.9z"/>
<path class="st3" d="M660.3,626.9c0,0-22.7,27.7-4.7,69.5l-181,78.5l-17.4,3.6l-8-35l5.3-44.2v-24.1L660.3,626.9z"/>
<polygon class="st1" points="88.7,609.1 339.2,563.4 671.2,616.3 465,690.5 "/>
<polygon class="st1" points="88.7,609.1 339.2,563.4 671.2,616.3 465,690.5 "/>
<path class="st1" d="M88.7,609c0,0-23.4,44.4,3.6,85.4l371.5,80.5c0,0-23.1-35.4,1.2-84.4L88.7,609z"/>
<path class="st4" d="M88.7,609c0,0-23.4,44.4,3.6,85.4l371.5,80.5c0,0-23.1-35.4,1.2-84.4L88.7,609z"/>
<path class="st4" d="M99.8,624.4c0,0-13.4,32.5,0,53.5"/>
<path class="st1" d="M463.8,774.9l207.4-88.5c0,0,11.6,2.5,4.1,11s-207.5,86-207.5,86l-375.5-89L463.8,774.9z"/>
<path class="st4" d="M463.8,774.9l207.4-88.5c0,0,11.6,2.5,4.1,11s-207.5,86-207.5,86l-375.5-89L463.8,774.9z"/>
<path class="st4" d="M446.8,699.4c0,0-20,24,0,60"/>
<rect x="451.6" y="714" transform="matrix(0.9486 -0.3165 0.3165 0.9486 -200.4708 194.6146)" class="st4" width="94.6" height="1"/>
<rect x="450.3" y="716.5" transform="matrix(0.9347 -0.3554 0.3554 0.9347 -221.6818 227.3403)" class="st4" width="115.2" height="1"/>
<rect x="449.7" y="721.2" transform="matrix(0.9255 -0.3788 0.3788 0.9255 -234.8877 249.4211)" class="st4" width="133.6" height="1"/>
<rect x="449.3" y="723.2" transform="matrix(0.9113 -0.4117 0.4117 0.9113 -251.266 280.7755)" class="st4" width="153.7" height="1"/>
<rect x="450.2" y="725.2" transform="matrix(0.9163 -0.4005 0.4005 0.9163 -245.9414 274.7212)" class="st4" width="168.1" height="1"/>
<rect x="451.3" y="725.9" transform="matrix(0.918 -0.3965 0.3965 0.918 -242.7655 278.3694)" class="st4" width="201.2" height="1"/>
<polygon class="st5" points="181.8,613.9 357.8,576.9 465,597.4 320.8,643.9 "/>
<path class="st1" d="M671.2,616.3c0,0,9.1,3.7,3.8,9.3s-210,64.9-210,64.9L671.2,616.3z"/>
<path class="st3" d="M759.6,530.8c0,0-22.7,27.7-4.7,69.5l-181,78.5l-17.4,3.7l-8-35l5.4-44.2v-24.2L759.6,530.8z"/>
<polygon class="st6" points="188,512.9 438.5,467.2 770.5,520.1 564.3,594.3 "/>
<path class="st6" d="M188,512.9c0,0-23.4,44.4,3.6,85.4L563,678.8c0,0-23-35.4,1.2-84.5L188,512.9z"/>
<path class="st4" d="M188,512.9c0,0-23.4,44.4,3.6,85.4L563,678.8c0,0-23-35.4,1.2-84.5l-117.5-25.4L188,512.9z"/>
<path class="st4" d="M199.1,528.3c0,0-13.4,32.5,0,53.5"/>
<path class="st6" d="M563.1,678.8l207.4-88.5c0,0,11.6,2.5,4.1,11s-207.5,86-207.5,86l-375.5-89L563.1,678.8z"/>
<path class="st4" d="M563.1,678.8l207.4-88.5c0,0,11.6,2.5,4.1,11s-207.5,86-207.5,86l-375.5-89L563.1,678.8z"/>
<path class="st4" d="M546.1,603.3c0,0-20,24,0,60"/>
<rect x="550.9" y="617.8" transform="matrix(0.9486 -0.3165 0.3165 0.9486 -164.9316 221.097)" class="st4" width="94.6" height="1"/>
<rect x="549.6" y="620.3" transform="matrix(0.9347 -0.3554 0.3554 0.9347 -181.0135 256.3585)" class="st4" width="115.2" height="1"/>
<rect x="549" y="625" transform="matrix(0.9255 -0.3788 0.3788 0.9255 -191.0506 279.8668)" class="st4" width="133.6" height="1"/>
<rect x="548.6" y="627" transform="matrix(0.9113 -0.4117 0.4117 0.9113 -202.8633 313.1289)" class="st4" width="153.7" height="1"/>
<rect x="549.5" y="629" transform="matrix(0.9163 -0.4005 0.4005 0.9163 -199.1014 306.4363)" class="st4" width="168.2" height="1"/>
<rect x="550.6" y="629.7" transform="matrix(0.918 -0.3965 0.3965 0.918 -196.4826 309.8575)" class="st4" width="201.2" height="1"/>
<polygon class="st7" points="281.1,517.8 457.1,480.8 564.3,501.3 420.1,547.8 "/>
<path class="st6" d="M770.5,520.1c0,0,9.1,3.7,3.8,9.3s-209.9,64.9-209.9,64.9L770.5,520.1z"/>
<path class="st3" d="M769,420.7c0,0-22.7,49.7-4.7,91.5l-181,56.5l-17.3,3.7l-8-35l5.3-44.2v-24.2L769,420.7z"/>
<polygon class="st1" points="197.4,402.9 448,357.2 779.9,410.1 573.7,484.3 "/>
<path class="st1" d="M197.4,402.8c0,0-23.5,44.4,3.5,85.4l371.5,80.5c0,0-23.1-35.4,1.2-84.4L197.4,402.8z"/>
<path class="st4" d="M197.4,402.8c0,0-23.5,44.4,3.5,85.4l371.5,80.5c0,0-23.1-35.4,1.2-84.4L197.4,402.8z"/>
<path class="st4" d="M208.5,418.2c0,0-13.4,32.5,0,53.5"/>
<path class="st1" d="M572.5,568.7l207.4-66.5c0,0,11.6,2.5,4.1,11s-207.5,64-207.5,64l-375.5-89L572.5,568.7z"/>
<path class="st4" d="M572.5,568.7l207.4-66.5c0,0,11.6,2.5,4.1,11s-207.5,64-207.5,64l-375.5-89L572.5,568.7z"/>
<path class="st4" d="M555.5,493.2c0,0-20,24,0,60"/>
<rect x="560.4" y="507.8" transform="matrix(0.9486 -0.3165 0.3165 0.9486 -129.6236 218.4298)" class="st4" width="94.6" height="1"/>
<rect x="559" y="510.3" transform="matrix(0.9347 -0.3554 0.3554 0.9347 -141.2901 252.5278)" class="st4" width="115.2" height="1"/>
<rect x="558.4" y="515" transform="matrix(0.9255 -0.3788 0.3788 0.9255 -148.6706 275.2383)" class="st4" width="133.6" height="1"/>
<rect x="558" y="517" transform="matrix(0.9113 -0.4117 0.4117 0.9113 -156.7294 307.2591)" class="st4" width="153.7" height="1"/>
<rect x="558.9" y="519" transform="matrix(0.9163 -0.4005 0.4005 0.9163 -154.2462 301.0099)" class="st4" width="168.1" height="1"/>
<rect x="560" y="519.6" transform="matrix(0.918 -0.3965 0.3965 0.918 -152.0869 304.5838)" class="st4" width="201.2" height="1"/>
<polygon class="st5" points="290.5,407.7 466.5,370.7 573.7,391.2 429.5,437.7 "/>
<path class="st1" d="M779.9,410.1c0,0,9.1,3.7,3.8,9.3s-209.9,64.9-209.9,64.9L779.9,410.1z"/>
<ellipse class="st0" cx="231.5" cy="781.6" rx="23" ry="2.6"/>
<ellipse class="st0" cx="80.8" cy="737.9" rx="23" ry="2.6"/>
<ellipse class="st0" cx="346.4" cy="810.6" rx="23" ry="2.6"/>
<ellipse class="st0" cx="806.9" cy="747.4" rx="23" ry="2.6"/>
<ellipse class="st0" cx="714.2" cy="734.9" rx="23" ry="2.6"/>
<path class="st1" d="M850.8,618.2c0,0,5.9,7.8-2.7,19.5s-15.8,21.6-12.9,28.9c0,0,13.1-21.7,23.7-22S862.5,631.3,850.8,618.2z"/>
<path class="st4" d="M850.8,618.2c0.5,0.7,0.9,1.6,1.2,2.4c10.4,12.2,15.9,23.6,5.9,23.9c-9.3,0.3-20.4,16.9-23.1,21.1
	c0.1,0.3,0.2,0.7,0.3,1c0,0,13.1-21.7,23.7-22S862.5,631.3,850.8,618.2z"/>
<path class="st8" d="M861.8,628.1c0,2.7-0.3,4.9-0.7,4.9s-0.7-2.2-0.7-4.9s0.4-1.4,0.8-1.4S861.8,625.4,861.8,628.1z"/>
<path class="st8" d="M865.6,631.4c-2.4,1.3-4.5,2.1-4.7,1.8s1.6-1.7,4-3s1.4-0.4,1.6,0S868,630,865.6,631.4z"/>
<path class="st1" d="M819.5,618.2c0,0-5.9,7.8,2.7,19.5s15.8,21.6,12.9,28.9c0,0-13.1-21.7-23.7-22S807.8,631.3,819.5,618.2z"/>
<path class="st4" d="M819.5,618.2c-0.5,0.7-0.9,1.6-1.2,2.4c-10.4,12.2-15.9,23.6-5.9,23.9c9.3,0.3,20.5,16.9,23.1,21.1
	c-0.1,0.3-0.2,0.7-0.3,1c0,0-13.1-21.7-23.7-22S807.8,631.3,819.5,618.2z"/>
<path class="st8" d="M808.5,628.1c0,2.7,0.3,4.9,0.7,4.9s0.7-2.2,0.7-4.9s-0.4-1.4-0.8-1.4S808.5,625.4,808.5,628.1z"/>
<path class="st8" d="M804.7,631.4c2.4,1.3,4.5,2.1,4.7,1.8s-1.6-1.7-4-3s-1.5-0.4-1.6,0S802.3,630,804.7,631.4z"/>
<ellipse class="st0" cx="835.2" cy="716.4" rx="62" ry="9.5"/>
<path class="st9" d="M867.1,656.1l-0.3,2.4l-0.4,3.4l-0.2,1.4l-0.4,3.4l-0.2,1.4l-0.4,3.4l-4.8,38.9c-0.4,3.5-6.1,6.2-12.9,6.2
	h-24.6c-6.8,0-12.5-2.7-12.9-6.2l-4.8-38.9l-0.4-3.4l-0.2-1.4l-0.4-3.4l-0.2-1.4l-0.4-3.4l-0.3-2.4c-0.2-2,2.8-3.6,6.7-3.6h50.4
	C864.2,652.5,867.3,654.1,867.1,656.1z"/>
<polygon class="st10" points="866.8,658.5 866.4,662 804,662 803.5,658.5 "/>
<polygon class="st10" points="866.2,663.4 865.8,666.8 804.5,666.8 804.1,663.4 "/>
<polygon class="st10" points="865.6,668.2 865.2,671.7 805.1,671.7 804.7,668.2 "/>
</svg>
