<?xml version="1.0" encoding="utf-8"?>
<!-- Generator: Adobe Illustrator 21.0.0, SVG Export Plug-In . SVG Version: 6.00 Build 0)  -->
<svg version="1.1" id="_x30_8e565a9-d273-44a5-8e62-fb3ff03af726"
	 xmlns="http://www.w3.org/2000/svg" xmlns:xlink="http://www.w3.org/1999/xlink" x="0px" y="0px" viewBox="0 0 796.6 727.8"
	 style="enable-background:new 0 0 796.6 727.8;" xml:space="preserve">
<style type="text/css">
	.st0{opacity:0.2;fill:#01C1C6;enable-background:new    ;}
	.st1{fill:#F5F5F5;}
	.st2{opacity:0.5;}
	.st3{fill:url(#SVGID_1_);}
	.st4{fill:#01C1C6;}
	.st5{opacity:0.2;fill:#F5F5F5;enable-background:new    ;}
	.st6{fill:#A1616A;}
	.st7{fill:#FFFFFF;}
	.st8{fill:#E0E0E0;}
	.st9{opacity:5.000000e-02;enable-background:new    ;}
	.st10{fill:none;stroke:#535461;stroke-width:2;stroke-miterlimit:10;}
	.st11{opacity:0.5;fill:#01C1C6;enable-background:new    ;}
	.st12{opacity:0.4;fill:#01C1C6;enable-background:new    ;}
	.st13{opacity:0.3;fill:#01C1C6;enable-background:new    ;}
</style>
<path class="st0" d="M197.4,54c-7.4-1.7-15-3-22.5-1.7c-20.3,3.3-33.8,24.6-34.8,45.1c-1,20.5,7.5,40.2,16.8,58.6
	c9.3,18.3,19.7,36.7,22.7,57c1.5,10.1,1,21.1-4.3,29.8c-8.2,13.5-25.9,18.5-41.6,17.1c-15.8-1.4-30.6-7.7-45.9-11.9
	c-6.4-1.7-13.1-3.1-19.6-2.2c-7.2,1-13.7,4.6-19.8,8.6c-23.9,15.4-45.2,38.7-48.1,67c-3.3,32.1,18,62.2,44.1,81.2
	c8.6,6.3,18,11.9,25.1,19.9c18.8,21,17.5,53.2,9.9,80.4c-7.6,27.1-20.6,53.3-21.8,81.4C56.3,617,72.3,650,98.8,669.2
	c23.7,17.1,56.4,22.8,82.9,10.5c12.9-6,23.7-15.8,33.4-26.1c14.7-15.6,27.6-32.9,38.3-51.5c5.1-8.8,10.1-18.4,19-23.5
	c5.4-3.1,11.8-4.2,18-4.8c18.8-1.8,37.8,0.4,56.6-0.8c18.8-1.2,38.6-6.4,51.5-20.2c18.2-19.6,17.4-49.4,22.7-75.7
	c11.9-59.8,58.3-106.4,83.1-162.1c8.1-18.2,13.9-39,7.6-57.9c-4.3-12.9-13.7-23.4-24-32.1c-22.7-19.2-50.5-31.3-77.9-43.1
	c-38-16.4-86-27-111.3-60.7C274.3,88.8,237.7,62,197.4,54z"/>
<ellipse class="st1" cx="411.2" cy="627.8" rx="343" ry="100"/>
<g class="st2">
	
		<linearGradient id="SVGID_1_" gradientUnits="userSpaceOnUse" x1="506.4533" y1="-10.52" x2="506.4533" y2="525.1963" gradientTransform="matrix(1 0 0 -1 -120 643.92)">
		<stop  offset="0" style="stop-color:#808080;stop-opacity:0.25"/>
		<stop  offset="0.54" style="stop-color:#808080;stop-opacity:0.12"/>
		<stop  offset="1" style="stop-color:#808080;stop-opacity:0.1"/>
	</linearGradient>
	<path class="st3" d="M659.6,329.5v-0.8L386.8,118.9c-0.4-0.3-0.8-0.3-1.2,0L112.7,328.7v325.2h0.5v0.5h546.9V329.2L659.6,329.5z"/>
</g>
<title>newsletter</title>
<path class="st4" d="M686.2,238.8c0,0-62,62-27,154s-60,245-60,245s1-0.2,2.9-0.5c127.3-22.5,190.6-168.1,119.8-276.3
	C695.6,320.8,674,273.6,686.2,238.8z"/>
<path class="st4" d="M796.6,489.6c0,0-70.8-11.3-77.2,52.1s-136,72.2-136,72.2s0.8,0.6,2.4,1.6c107,70.2,209.3,44.7,193.9-48.5
	C774,532.4,774.4,497.5,796.6,489.6z"/>
<path class="st5" d="M796.6,489.6c0,0-70.8-11.3-77.2,52.1s-136,72.2-136,72.2s0.8,0.6,2.4,1.6c107,70.2,209.3,44.7,193.9-48.5
	C774,532.4,774.4,497.5,796.6,489.6z"/>
<path class="st6" d="M177.8,339.1c0,0,9.6,36-19.3,41.2c-0.5-0.1-0.9-0.3-1.3-0.6c0,0-16.7-32.8-3.9-45.7L177.8,339.1z"/>
<path d="M197.8,504.3c0.8,0,1.5-0.7,1.5-1.5s-0.7-1.5-1.5-1.5s-1.5,0.7-1.5,1.5S196.9,504.3,197.8,504.3L197.8,504.3z"/>
<polygon class="st7" points="650.2,644.8 122.2,644.8 122.2,330.9 386.2,127.8 650.2,330.9 "/>
<polygon class="st8" points="631.2,626.2 141.2,626.2 141.2,334.8 386.2,146.4 631.2,334.8 "/>
<rect x="215.2" y="174.9" transform="matrix(0.9673 -0.2536 0.2536 0.9673 -82.086 105.8921)" class="st4" width="309" height="393"/>
<rect x="233.2" y="199.9" class="st1" width="309" height="393"/>
<polygon class="st9" points="124.7,331.4 388.7,488.4 124.7,645.3 "/>
<polygon class="st7" points="122.7,331.4 386.7,488.4 122.7,645.3 "/>
<polygon class="st9" points="648.7,331.4 384.7,488.4 648.7,645.3 "/>
<polygon class="st7" points="650.7,331.4 386.7,488.4 650.7,645.3 "/>
<polygon class="st9" points="122.7,640.3 386.7,434.4 650.7,640.3 "/>
<polygon class="st7" points="122.7,645.3 386.7,439.4 650.7,645.3 "/>
<path class="st10" d="M176.4,669.2c0,0-13.3-45,2.5-78.1c6.7-13.9,8.7-29.5,5.8-44.6c-1.5-7.2-3.6-14.2-6.3-20.9"/>
<path class="st4" d="M188.1,504.6c0,5.5-10,21.5-10,21.5s-10-16-10-21.5c0-5.5,4.5-10,10-10S188.1,499.1,188.1,504.6z"/>
<path class="st4" d="M204.6,535.1c-3,4.6-20.1,12.6-20.1,12.6s0.3-18.9,3.3-23.5c3.2-4.5,9.5-5.5,13.9-2.3
	C206,525,207.2,530.7,204.6,535.1z"/>
<path class="st4" d="M203.9,587.4c-4.9,2.5-23.7,0.8-23.7,0.8s9.8-16.1,14.7-18.6c4.8-2.7,10.9-1,13.6,3.8c2.7,4.8,1,10.9-3.8,13.6
	C204.4,587.1,204.1,587.3,203.9,587.4L203.9,587.4z"/>
<path class="st4" d="M194.4,626.8c-4.4,3.3-23.2,4.8-23.2,4.8s6.9-17.5,11.4-20.8c4.6-3.1,10.8-1.8,13.9,2.8
	C199.3,617.7,198.4,623.5,194.4,626.8z"/>
<path class="st4" d="M163.5,548.8c4,3.8,22.4,7.8,22.4,7.8s-4.5-18.3-8.5-22.2c-4.1-3.7-10.5-3.3-14.1,0.9
	C159.9,539.3,160,545.1,163.5,548.8L163.5,548.8z"/>
<path class="st4" d="M153.1,595c4.9,2.5,23.7,0.8,23.7,0.8s-9.8-16.1-14.7-18.6c-5-2.3-11,0-13.2,5
	C146.7,586.9,148.5,592.5,153.1,595L153.1,595z"/>
<path class="st4" d="M149.1,641.3c4.4,3.3,23.2,4.8,23.2,4.8s-6.9-17.5-11.4-20.8c-4.3-3.5-10.6-2.9-14.1,1.4s-2.9,10.6,1.4,14.1
	C148.5,641,148.8,641.2,149.1,641.3z"/>
<rect x="251.2" y="217.9" class="st11" width="124" height="10"/>
<rect x="251.2" y="257.9" class="st11" width="268" height="10"/>
<rect x="251.2" y="283.9" class="st11" width="268" height="10"/>
<rect x="251.2" y="309.9" class="st12" width="268" height="10"/>
<rect x="251.2" y="335.9" class="st12" width="268" height="10"/>
<rect x="251.2" y="361.9" class="st13" width="153" height="10"/>
<rect x="251.2" y="387.9" class="st13" width="209" height="10"/>
</svg>
