<?xml version="1.0" encoding="utf-8"?>
<!-- Generator: Adobe Illustrator 21.0.0, SVG Export Plug-In . SVG Version: 6.00 Build 0)  -->
<svg version="1.1" id="_x32_b8e3008-3352-469a-8231-8c916447ef06"
	 xmlns="http://www.w3.org/2000/svg" xmlns:xlink="http://www.w3.org/1999/xlink" x="0px" y="0px" viewBox="0 0 988.2 772.3"
	 style="enable-background:new 0 0 988.2 772.3;" xml:space="preserve">
<style type="text/css">
	.st0{opacity:0.1;fill:#01C1C6;enable-background:new    ;}
	.st1{fill:none;stroke:#535461;stroke-width:2;stroke-miterlimit:10;}
	.st2{fill:#01C1C6;}
	.st3{fill:url(#SVGID_1_);}
	.st4{opacity:0.1;}
	.st5{fill:#FFFFFF;}
	.st6{opacity:0.3;fill:#535461;enable-background:new    ;}
	.st7{fill:#535461;}
	.st8{opacity:5.000000e-02;enable-background:new    ;}
	.st9{opacity:0.1;enable-background:new    ;}
	.st10{fill:none;stroke:#535461;stroke-width:1.2028;stroke-miterlimit:10;}
	.st11{fill:#A8A8A8;}
	.st12{opacity:0.2;enable-background:new    ;}
</style>
<title>time management</title>
<path class="st0" d="M104.4,77.3c-6.5,2.7-13.1,6.1-16.6,12.1c-3.8,6.4-3.3,14.3-2.6,21.6c6.1,63.9,22.2,131.9-5.6,189.8
	c-13.5,28.1-36,50.6-53.9,76.1C7.7,402.5-5.8,434.4,2.5,464.4c10.2,36.7,48.1,57,73.6,85.2c16.7,18.5,28.5,40.9,44.1,60.3
	s37,36.5,61.9,37.7c35.8,1.7,65-29.3,100.1-36.5c36-7.3,72.3,11.3,101.4,33.7s55.7,49.5,89.8,63.4c37.6,15.4,79.9,13.1,119.4,22.3
	c36,8.5,69.1,26.4,104.9,36s77.6,9,105.3-15.5c36.1-32,33.3-89,56.3-131.3c21.4-39.3,63.3-62.8,91.5-97.6
	c50.8-62.6,49.1-158.2,6-226.3s-121.2-109.3-201-120c-36-4.8-73.1-4.2-107.7-15.2C555.6,131.3,500.5,26,405.9,4.1
	C345.8-9.9,287.3,14.2,236.1,43.9C191.7,69.6,150.7,58.1,104.4,77.3z"/>
<path class="st1" d="M194.7,283.8c0,0-34.1,32.2-70.8,33.2c-15.4,0.3-30.2,5.6-42.4,15.1c-5.7,4.5-11,9.6-15.8,15.1"/>
<path class="st2" d="M42.6,347.9c4.9-2.5,23.7-0.8,23.7-0.8s-9.7,16.1-14.7,18.6c-4.8,2.8-10.9,1.2-13.7-3.5
	c-2.8-4.8-1.2-10.9,3.5-13.7C41.8,348.3,42.2,348.1,42.6,347.9L42.6,347.9z"/>
<path class="st2" d="M62.4,319.4c5.5,0.6,20.4,12.2,20.4,12.2s-17,8.3-22.4,7.7c-5.5-0.8-9.2-5.9-8.4-11.4
	C52.7,322.8,57.2,319.1,62.4,319.4z"/>
<path class="st2" d="M109.3,296.4c4.4,3.3,11.4,20.8,11.4,20.8s-18.8-1.4-23.3-4.7c-4.3-3.5-5-9.8-1.5-14.1
	C99.2,294.4,105,293.5,109.3,296.4z"/>
<path class="st2" d="M148.6,287c4.9,2.5,14.8,18.6,14.8,18.6s-18.8,1.8-23.7-0.7c-5.1-2.2-7.4-8.1-5.2-13.2
	c2.2-5.1,8.1-7.4,13.2-5.2C148,286.6,148.3,286.8,148.6,287L148.6,287z"/>
<path class="st2" d="M93.2,349.8c1.6-5.3-3.2-23.5-3.2-23.5s-14.3,12.3-15.9,17.6c-1.9,5.2,0.8,10.9,6,12.8c5.2,1.9,10.9-0.8,12.8-6
	C93,350.4,93.1,350.1,93.2,349.8z"/>
<path class="st2" d="M139.1,338.1c0-5.5-10.1-21.5-10.1-21.5s-9.9,16-9.9,21.5c0,5.5,4.5,10,10,10
	C134.7,348.2,139.1,343.7,139.1,338.1L139.1,338.1L139.1,338.1z"/>
<path class="st2" d="M182.2,320.8c0.9-5.4-6.3-22.9-6.3-22.9s-12.5,14.1-13.4,19.6c-0.7,5.5,3.2,10.5,8.7,11.1
	C176.4,329.2,181.1,325.8,182.2,320.8L182.2,320.8z"/>
<path class="st1" d="M239,198.5c0,0-41.1-22.6-53.3-57.2c-5-14.5-14.6-27.1-27.4-35.7c-6.1-4-12.5-7.5-19.2-10.4"/>
<path class="st2" d="M131.3,73.5c3.9,3.9,8.1,22.3,8.1,22.3s-18.4-4.3-22.3-8.2c-3.7-4.1-3.4-10.4,0.7-14.1
	C121.7,70,127.5,70.1,131.3,73.5z"/>
<path class="st2" d="M164.5,83.6c1.1,5.4-5.3,23.1-5.3,23.1s-13.1-13.6-14.2-19c-1.4-5.3,1.8-10.8,7.2-12.2
	c5.3-1.4,10.8,1.8,12.2,7.2C164.4,82.9,164.5,83.2,164.5,83.6L164.5,83.6z"/>
<path class="st2" d="M200.8,121.1c-1.7,5.2-16.3,17.3-16.3,17.3s-4.4-18.3-2.7-23.6c1.7-5.2,7.4-8.1,12.7-6.3
	S202.6,115.9,200.8,121.1L200.8,121.1L200.8,121.1z"/>
<path class="st2" d="M221.9,155.7c-0.8,5.4-13.1,19.8-13.1,19.8s-7.5-17.3-6.6-22.8c0.6-5.5,5.5-9.5,11-8.9c5.5,0.6,9.5,5.5,8.9,11
	C222,155,222,155.4,221.9,155.7L221.9,155.7z"/>
<path class="st2" d="M145.1,122.2c5.5-0.1,21.4-10.2,21.4-10.2s-16.1-9.8-21.6-9.7c-5.5,0.1-9.9,4.6-9.9,10.1
	C135,117.9,139.6,122.3,145.1,122.2L145.1,122.2L145.1,122.2z"/>
<path class="st2" d="M170.2,162.4c5.2-1.7,17.4-16.2,17.4-16.2s-18.3-4.5-23.6-2.8c-5.3,1.5-8.4,7-6.9,12.4c1.5,5.3,7,8.4,12.4,6.9
	C169.8,162.5,170,162.4,170.2,162.4L170.2,162.4z"/>
<path class="st2" d="M200,198c5.5-0.8,19.8-13,19.8-13s-17.3-7.6-22.7-6.8c-5.5,0.6-9.5,5.5-8.9,11s5.5,9.5,11,8.9
	C199.5,198.1,199.8,198.1,200,198L200,198z"/>
<linearGradient id="SVGID_1_" gradientUnits="userSpaceOnUse" x1="494.5868" y1="27.59" x2="494.5868" y2="751.59" gradientTransform="matrix(1 0 0 -1 0 774)">
	<stop  offset="0" style="stop-color:#808080;stop-opacity:0.25"/>
	<stop  offset="0.54" style="stop-color:#808080;stop-opacity:0.12"/>
	<stop  offset="1" style="stop-color:#808080;stop-opacity:0.1"/>
</linearGradient>
<circle class="st3" cx="494.6" cy="384.4" r="362"/>
<g class="st4">
	<rect x="538.9" y="378.4" width="226" height="20"/>
	<rect x="435.8" y="269.4" transform="matrix(0.4639 -0.8859 0.8859 0.4639 -70.7616 582.4201)" width="20" height="160.5"/>
	<circle cx="521.9" cy="388.4" r="30"/>
</g>
<g>
	<circle class="st2" cx="494.1" cy="384.4" r="356"/>
	<circle class="st5" cx="494.1" cy="384.4" r="283"/>
	<rect x="486.1" y="151.4" class="st6" width="16" height="250"/>
	<rect x="511.1" y="374.4" class="st7" width="226" height="20"/>
	
		<rect x="408.1" y="265.4" transform="matrix(0.4639 -0.8859 0.8859 0.4639 -82.1213 555.6942)" class="st7" width="20" height="160.5"/>
	<circle class="st7" cx="494.1" cy="384.4" r="30"/>
	<g class="st4">
		<path d="M233.1,418.4c0-156.3,126.7-283,283-283c88.9-0.1,172.7,41.7,226.2,112.8c-48.2-87.5-141.2-146.8-248.2-146.8
			c-156.3,0-283,126.7-283,283C211,445.8,231,505.6,268,554.6C245,512.9,233,466,233.1,418.4z"/>
	</g>
</g>
<path class="st8" d="M730.2,249.2c0,0-3.7,8.7-1.8,11.4"/>
<path class="st8" d="M584.5,246.5c0,0,1.8,8.7,0,11.4"/>
<g>
	<path class="st2" d="M841.1,385c0,0-50.3,50.3-21.9,125c28.4,74.7-48.7,198.8-48.7,198.8s0.8-0.1,2.4-0.4
		c103.4-18.2,154.7-136.4,97.2-224.3C848.7,451.5,831.2,413.2,841.1,385z"/>
	<path class="st9" d="M841.1,385.8c0,0-50.3,50.3-21.9,125c28.4,74.7-48.7,198.8-48.7,198.8s0.8-0.1,2.4-0.4
		C876.2,691,927.6,572.8,870.1,485C848.7,452.4,831.2,414.1,841.1,385.8z"/>
	<path class="st10" d="M841.1,385c0,0-28.4,61.7,0,112s4.8,191.5-70.6,211.8"/>
	<path class="st2" d="M930.7,588.5c0,0-57.4-9.1-62.7,42.3c-5.2,51.5-110.5,58.6-110.5,58.6l2,1.3c86.8,57,169.9,36.3,157.4-39.4
		C912.3,623.2,912.7,594.9,930.7,588.5z"/>
	<path class="st10" d="M930.7,588.5c0,0-44.6,9.8-40.9,50.3c3.7,40.5-66.2,89.1-132.2,50.6"/>
</g>
<g>
	<path class="st11" d="M831,691.3c0,0-45.2-9-57.3-21.1c-12.1-12.1-66.3-33.2-72.4-18c-6,15.1-81.4,66.3-30.2,75.4
		c51.3,9,120.6,12,135.7,6C822,727.5,831,691.3,831,691.3z"/>
	<path class="st12" d="M671.2,721.9c51.3,9,120.6,12,135.7,6c11.5-4.6,19.5-26.7,22.6-36.9l1.5,0.3c0,0-9,36.2-24.1,42.2
		c-15.1,6-84.4,3-135.7-6c-14.8-2.6-19-8.7-17.4-16.5C655,716,660.2,719.9,671.2,721.9z"/>
</g>
</svg>
