<?xml version="1.0" encoding="utf-8"?>
<!-- Generator: Adobe Illustrator 21.0.0, SVG Export Plug-In . SVG Version: 6.00 Build 0)  -->
<svg version="1.1" id="a1e1094a-0c8c-49ef-9e46-7b691cb0c375"
	 xmlns="http://www.w3.org/2000/svg" xmlns:xlink="http://www.w3.org/1999/xlink" x="0px" y="0px" viewBox="0 0 692.2 680.5"
	 style="enable-background:new 0 0 692.2 680.5;" xml:space="preserve">
<style type="text/css">
	.st0{fill:none;stroke:#535461;stroke-width:2;stroke-miterlimit:10;}
	.st1{opacity:0.1;fill:#252223;enable-background:new    ;}
	.st2{clip-path:url(#SVGID_2_);}
	.st3{opacity:0.3;fill:#01C1C6;enable-background:new    ;}
	.st4{opacity:0.4;fill:#FFFFFF;enable-background:new    ;}
	.st5{fill:url(#SVGID_3_);}
	.st6{fill:url(#SVGID_4_);}
	.st7{fill:url(#SVGID_5_);}
	.st8{fill:#01C1C6;}
	.st9{fill:none;stroke:#535461;stroke-miterlimit:10;}
	.st10{opacity:0.25;enable-background:new    ;}
</style>
<title>walk in the city</title>
<path class="st0" d="M-285,637.6"/>
<path class="st1" d="M622.7,578.6c-5.3,2.7-10.8,5-16.3,7.3c-20.2,8.4-40.8,16.9-62.5,19.8c-40.8,5.4-82.9-9.3-123-0.2
	c-33.6,7.6-61.4,31.1-94.2,41.5c-15.3,4.8-31.1,6.7-47.2,6.7h-2.1c-2,0-4-0.1-5.9-0.1c-16.2-0.6-32.6-3-48.5-6
	c-50.3-9.5-101.4-27-139.9-59.2C195,568.4,425.6,537.4,622.7,578.6z"/>
<g>
	<defs>
		<rect id="SVGID_1_" x="0.3" width="690.6" height="541"/>
	</defs>
	<clipPath id="SVGID_2_">
		<use xlink:href="#SVGID_1_"  style="overflow:visible;"/>
	</clipPath>
	<g class="st2">
		<polygon class="st3" points="778.8,231.7 778.8,163.9 738.6,163.9 738.6,231.7 690.9,231.7 690.9,126.9 655.9,126.9 655.9,48.5 
			627.3,48.5 627.3,-32 568,-32 568,48.5 539.4,48.5 539.4,126.9 505.5,126.9 505.5,32.6 486.5,32.6 486.5,-15.1 474.8,-15.1 
			474.8,32.6 407,32.6 407,333.4 355.1,333.4 355.1,301.6 323.4,301.6 323.4,333.4 271.5,333.4 271.5,231.7 178.3,231.7 
			178.3,163.9 138,163.9 138,231.7 135.9,231.7 135.9,362 93.5,362 93.5,285.7 42.7,285.7 42.7,362 0.3,362 0.3,126.9 -32.5,126.9 
			-32.5,48.5 -153.2,48.5 -153.2,126.9 -185,126.9 -185,541 0.3,541 135.9,541 271.5,541 407,541 505.5,541 690.9,541 826.5,541 
			826.5,231.7 		"/>
		<rect x="-164.9" y="151.2" class="st4" width="44.5" height="25.4"/>
		<rect x="-65.3" y="151.2" class="st4" width="44.5" height="25.4"/>
		<rect x="-164.9" y="201" class="st4" width="44.5" height="25.4"/>
		<rect x="-65.3" y="201" class="st4" width="44.5" height="25.4"/>
		<rect x="-164.9" y="250.8" class="st4" width="44.5" height="25.4"/>
		<rect x="-65.3" y="250.8" class="st4" width="44.5" height="25.4"/>
		<rect x="-164.9" y="300.6" class="st4" width="44.5" height="25.4"/>
		<rect x="-65.3" y="300.6" class="st4" width="44.5" height="25.4"/>
		<rect x="-164.9" y="350.4" class="st4" width="44.5" height="25.4"/>
		<rect x="-65.3" y="350.4" class="st4" width="44.5" height="25.4"/>
		<rect x="-164.9" y="400.1" class="st4" width="44.5" height="25.4"/>
		<rect x="-65.3" y="400.1" class="st4" width="44.5" height="25.4"/>
		<rect x="-164.9" y="449.9" class="st4" width="44.5" height="25.4"/>
		<rect x="-65.3" y="449.9" class="st4" width="44.5" height="25.4"/>
		<rect x="16.2" y="387.4" class="st4" width="103.8" height="12.7"/>
		<rect x="16.2" y="406.5" class="st4" width="103.8" height="12.7"/>
		<rect x="16.2" y="425.6" class="st4" width="103.8" height="12.7"/>
		<rect x="287.4" y="393.8" class="st4" width="103.8" height="12.7"/>
		<rect x="287.4" y="412.8" class="st4" width="103.8" height="12.7"/>
		<rect x="287.4" y="431.9" class="st4" width="103.8" height="12.7"/>
		<rect x="16.2" y="444.6" class="st4" width="103.8" height="12.7"/>
		<rect x="16.2" y="463.7" class="st4" width="103.8" height="12.7"/>
		<rect x="16.2" y="482.7" class="st4" width="103.8" height="12.7"/>
		<rect x="158.1" y="256.1" class="st4" width="28.6" height="37.1"/>
		<rect x="220.6" y="256.1" class="st4" width="28.6" height="37.1"/>
		<rect x="158.1" y="315.4" class="st4" width="28.6" height="37.1"/>
		<rect x="220.6" y="315.4" class="st4" width="28.6" height="37.1"/>
		<rect x="158.1" y="374.7" class="st4" width="28.6" height="37.1"/>
		<rect x="220.6" y="374.7" class="st4" width="28.6" height="37.1"/>
		<rect x="158.1" y="434" class="st4" width="28.6" height="37.1"/>
		<rect x="220.6" y="434" class="st4" width="28.6" height="37.1"/>
		<rect x="407" y="57" class="st4" width="38.1" height="48.7"/>
		<rect x="407" y="126.9" class="st4" width="38.1" height="48.7"/>
		<rect x="407" y="196.8" class="st4" width="38.1" height="48.7"/>
		<rect x="407" y="266.7" class="st4" width="38.1" height="48.7"/>
		<rect x="407" y="336.6" class="st4" width="38.1" height="48.7"/>
		<rect x="407" y="406.5" class="st4" width="38.1" height="48.7"/>
		<rect x="527.3" y="156.5" class="st4" width="141.9" height="41.3"/>
		<rect x="527.8" y="245.5" class="st4" width="141.9" height="41.3"/>
		<rect x="528.3" y="334.5" class="st4" width="141.9" height="41.3"/>
		<rect x="528.8" y="423.4" class="st4" width="141.9" height="41.3"/>
		<rect x="-153.2" y="70.7" class="st4" width="19.1" height="40.2"/>
		<rect x="778.8" y="256.1" class="st4" width="47.7" height="61.4"/>
		<rect x="778.8" y="345.1" class="st4" width="47.7" height="61.4"/>
		<rect x="778.8" y="434" class="st4" width="47.7" height="61.4"/>
		<path class="st1" d="M799.7-20.7h-7.3c2.8,0.1,5.2-2.1,5.3-4.9c0.1-2.8-2.1-5.2-4.9-5.3c-0.2,0-0.3,0-0.5,0h-59
			c-2.8,0.1-5,2.5-4.9,5.3c0.1,2.6,2.2,4.7,4.9,4.9h7.3c-2.8-0.1-5.2,2.1-5.3,4.9c-0.1,2.8,2.1,5.2,4.9,5.3c0.2,0,0.3,0,0.5,0h-10.2
			c-2.8-0.1-5.2,2.1-5.3,4.9c-0.1,2.8,2.1,5.2,4.9,5.3c0.2,0,0.3,0,0.5,0h59c2.8-0.1,5-2.5,4.9-5.3c-0.1-2.6-2.2-4.7-4.9-4.9h10.2
			c2.8,0.1,5.2-2.1,5.3-4.9c0.1-2.8-2.1-5.2-4.9-5.3C800-20.7,799.8-20.7,799.7-20.7z"/>
		
			<linearGradient id="SVGID_3_" gradientUnits="userSpaceOnUse" x1="357.3068" y1="226.5307" x2="358.5671" y2="226.5307" gradientTransform="matrix(1 0 0 -1 -122.5 572.25)">
			<stop  offset="0" style="stop-color:#808080;stop-opacity:0.25"/>
			<stop  offset="0.54" style="stop-color:#808080;stop-opacity:0.12"/>
			<stop  offset="1" style="stop-color:#808080;stop-opacity:0.1"/>
		</linearGradient>
		<path class="st5" d="M236.1,345.3c-0.8,0.6-1.3,0.9-1.3,0.9C235.3,345.9,235.7,345.6,236.1,345.3z"/>
		
			<linearGradient id="SVGID_4_" gradientUnits="userSpaceOnUse" x1="358.2917" y1="225.5351" x2="359.5627" y2="225.5351" gradientTransform="matrix(1 0 0 -1 -122.5 572.25)">
			<stop  offset="0" style="stop-color:#808080;stop-opacity:0.25"/>
			<stop  offset="0.54" style="stop-color:#808080;stop-opacity:0.12"/>
			<stop  offset="1" style="stop-color:#808080;stop-opacity:0.1"/>
		</linearGradient>
		<path class="st6" d="M237.1,346.3c-0.8,0.6-1.3,0.9-1.3,0.9C236.3,346.9,236.7,346.6,237.1,346.3z"/>
		
			<linearGradient id="SVGID_5_" gradientUnits="userSpaceOnUse" x1="358.2917" y1="226.5307" x2="359.5627" y2="226.5307" gradientTransform="matrix(1 0 0 -1 -122.5 572.25)">
			<stop  offset="0" style="stop-color:#808080;stop-opacity:0.25"/>
			<stop  offset="0.54" style="stop-color:#808080;stop-opacity:0.12"/>
			<stop  offset="1" style="stop-color:#808080;stop-opacity:0.1"/>
		</linearGradient>
		<path class="st7" d="M237.1,345.3c-0.8,0.6-1.3,0.9-1.3,0.9C236.3,345.9,236.7,345.6,237.1,345.3z"/>
	</g>
</g>
<g>
	<path class="st0" d="M620.4,581.3c0,0-24.7-83.8,4.6-145.4c12.3-25.9,16.4-54.9,10.7-83c-2.7-13.3-6.6-26.4-11.8-39"/>
	<path class="st8" d="M642.2,274.9c0,10.3-18.6,40-18.6,40s-18.6-29.8-18.6-40c-0.2-10.3,7.9-18.8,18.2-19
		c10.3-0.2,18.8,7.9,19,18.2C642.2,274.4,642.2,274.6,642.2,274.9L642.2,274.9z"/>
	<path class="st8" d="M673,331.8c-5.6,8.6-37.4,23.5-37.4,23.5s0.6-35.1,6.2-43.7c5.4-8.8,16.8-11.5,25.6-6.1
		c8.8,5.4,11.5,16.8,6.1,25.6C673.3,331.3,673.1,331.5,673,331.8L673,331.8z"/>
	<path class="st8" d="M671.6,429c-9.2,4.6-44.1,1.4-44.1,1.4s18.2-30,27.4-34.6c9.3-4.4,20.4-0.5,24.8,8.7
		C684,413.5,680.4,424.3,671.6,429L671.6,429z"/>
	<path class="st8" d="M654,502.3c-8.3,6.1-43.2,8.9-43.2,8.9s12.9-32.6,21.1-38.8c8.3-6,19.9-4.2,26,4.1
		C663.9,484.7,662.2,496.1,654,502.3z"/>
	<path class="st8" d="M596.6,357.3c7.4,7.1,41.7,14.6,41.7,14.6s-8.4-34.1-15.8-41.2c-7.4-7.2-19.1-7-26.3,0.4
		C589,338.3,589.2,350.1,596.6,357.3z"/>
	<path class="st8" d="M577.1,443.3c9.2,4.6,44.1,1.4,44.1,1.4s-18.2-30-27.4-34.6c-9.3-4.4-20.4-0.4-24.8,8.9
		C564.9,427.9,568.4,438.6,577.1,443.3z"/>
	<path class="st8" d="M569.7,529.4c8.3,6.1,43.2,8.9,43.2,8.9s-12.9-32.6-21.1-38.8c-8.3-6-19.9-4.2-26,4.1
		C559.8,511.8,561.5,523.3,569.7,529.4z"/>
</g>
<g>
	<path class="st0" d="M512.5,573.1c0,0-13.3-45,2.5-78.1c6.7-13.9,8.7-29.5,5.8-44.6c-1.5-7.2-3.6-14.2-6.3-20.9"/>
	<path class="st8" d="M524.3,408.5c0,5.5-10,21.5-10,21.5s-10-16-10-21.5c0-5.5,4.5-10,10-10S524.3,403,524.3,408.5z"/>
	<path class="st8" d="M540.8,439c-3,4.6-20.1,12.6-20.1,12.6s0.3-18.9,3.3-23.5c2.8-4.8,8.9-6.4,13.7-3.6c4.8,2.8,6.4,8.9,3.6,13.7
		C541.1,438.5,541,438.8,540.8,439z"/>
	<path class="st8" d="M540.1,491.3c-4.9,2.5-23.7,0.8-23.7,0.8s9.8-16.1,14.7-18.6c5-2.3,11,0,13.2,5
		C546.4,483.1,544.6,488.7,540.1,491.3L540.1,491.3z"/>
	<path class="st8" d="M530.6,530.6c-4.4,3.3-23.2,4.8-23.2,4.8s6.9-17.5,11.4-20.8c4.6-3.1,10.8-1.8,13.9,2.8
		C535.5,521.6,534.6,527.4,530.6,530.6z"/>
	<path class="st8" d="M499.7,452.7c4,3.8,22.4,7.8,22.4,7.8s-4.5-18.3-8.5-22.2c-3.8-4-10.1-4.2-14.1-0.5c-4,3.8-4.2,10.1-0.5,14.1
		C499.3,452.3,499.5,452.5,499.7,452.7L499.7,452.7z"/>
	<path class="st8" d="M489.3,498.9c4.9,2.5,23.7,0.8,23.7,0.8s-9.8-16.1-14.7-18.6c-5-2.3-11,0-13.2,5
		C482.9,490.8,484.7,496.4,489.3,498.9L489.3,498.9z"/>
	<path class="st8" d="M485.3,545.3c4.4,3.3,23.2,4.8,23.2,4.8s-7-17.5-11.4-20.8c-4.6-3.1-10.8-1.9-13.9,2.6
		C480.3,536.1,481.2,542,485.3,545.3z"/>
</g>
<g>
	<path class="st8" d="M21.3,469.9c0,0-78.7,47.5,66.4,120.6c0,0,32-59.4-3.4-107.8c-14.2-19.5-40.8-25.3-61.8-13.5L21.3,469.9z"/>
	<path class="st9" d="M22.2,468.9c0,0,67.4,51.6,65.5,121.6"/>
	<path class="st0" d="M91.4,593.2c0,0-24.7-83.8,4.6-145.4c12.3-25.9,16.4-54.9,10.7-83c-2.7-13.3-6.6-26.4-11.8-39"/>
	<path class="st8" d="M113.1,286.9c0,10.3-18.6,40-18.6,40S76,297.1,76,286.9c-0.2-10.3,7.9-18.8,18.2-19s18.8,7.9,19,18.2
		C113.1,286.3,113.1,286.6,113.1,286.9L113.1,286.9z"/>
	<path class="st8" d="M143.9,343.7c-5.6,8.6-37.4,23.5-37.4,23.5s0.6-35.1,6.2-43.7c5.8-8.5,17.4-10.6,25.8-4.9
		C146.7,324.3,149.1,335.3,143.9,343.7L143.9,343.7z"/>
	<path class="st8" d="M142.6,440.9c-9.2,4.6-44.1,1.4-44.1,1.4s18.2-30,27.4-34.6c9.3-4.4,20.4-0.5,24.8,8.7
		C154.9,425.4,151.4,436.2,142.6,440.9L142.6,440.9z"/>
	<path class="st8" d="M125,514.2c-8.3,6.1-43.2,8.9-43.2,8.9s12.9-32.6,21.1-38.8c8.2-6.2,19.9-4.5,26,3.7s4.5,19.9-3.7,26
		C125.1,514.1,125.1,514.1,125,514.2z"/>
	<path class="st8" d="M67.5,369.2c7.4,7.1,41.7,14.6,41.7,14.6s-8.4-34.1-15.8-41.2c-7.2-7.3-19-7.4-26.3-0.2
		c-7.3,7.2-7.4,19-0.2,26.3C67.1,368.8,67.3,369,67.5,369.2L67.5,369.2z"/>
	<path class="st8" d="M48.1,455.2c9.2,4.6,44.1,1.4,44.1,1.4S74,426.6,64.8,422c-9.3-4.4-20.4-0.5-24.8,8.7
		C35.7,439.7,39.2,450.5,48.1,455.2L48.1,455.2z"/>
	<path class="st8" d="M40.6,541.4c8.3,6.1,43.2,8.9,43.2,8.9S71,517.6,62.7,511.5c-8.3-6-19.9-4.2-26,4.1
		C30.8,523.8,32.5,535.3,40.6,541.4L40.6,541.4z"/>
	<path class="st10" d="M113.1,286.9c0,10.3-18.6,40-18.6,40S76,297.1,76,286.9c-0.2-10.3,7.9-18.8,18.2-19s18.8,7.9,19,18.2
		C113.1,286.3,113.1,286.6,113.1,286.9L113.1,286.9z"/>
	<path class="st10" d="M143.9,343.7c-5.6,8.6-37.4,23.5-37.4,23.5s0.6-35.1,6.2-43.7c5.8-8.5,17.4-10.6,25.8-4.9
		C146.7,324.3,149.1,335.3,143.9,343.7L143.9,343.7z"/>
	<path class="st10" d="M142.6,440.9c-9.2,4.6-44.1,1.4-44.1,1.4s18.2-30,27.4-34.6c9.3-4.4,20.4-0.5,24.8,8.7
		C154.9,425.4,151.4,436.2,142.6,440.9L142.6,440.9z"/>
	<path class="st10" d="M125,514.2c-8.3,6.1-43.2,8.9-43.2,8.9s12.9-32.6,21.1-38.8c8.2-6.2,19.9-4.5,26,3.7s4.5,19.9-3.7,26
		C125.1,514.1,125.1,514.1,125,514.2z"/>
	<path class="st10" d="M67.5,369.2c7.4,7.1,41.7,14.6,41.7,14.6s-8.4-34.1-15.8-41.2c-7.2-7.3-19-7.4-26.3-0.2
		c-7.3,7.2-7.4,19-0.2,26.3C67.1,368.8,67.3,369,67.5,369.2L67.5,369.2z"/>
	<path class="st10" d="M48.1,455.2c9.2,4.6,44.1,1.4,44.1,1.4S74,426.6,64.8,422c-9.3-4.4-20.4-0.5-24.8,8.7
		C35.7,439.7,39.2,450.5,48.1,455.2L48.1,455.2z"/>
	<path class="st10" d="M40.6,541.4c8.3,6.1,43.2,8.9,43.2,8.9S71,517.6,62.7,511.5c-8.3-6-19.9-4.2-26,4.1
		C30.8,523.8,32.5,535.3,40.6,541.4L40.6,541.4z"/>
</g>
</svg>
