<?xml version="1.0" encoding="utf-8"?>
<!-- Generator: Adobe Illustrator 21.0.0, SVG Export Plug-In . SVG Version: 6.00 Build 0)  -->
<svg version="1.1" id="_x35_3917d2c-59b7-443c-9dc6-ca37ebed1a74"
	 xmlns="http://www.w3.org/2000/svg" xmlns:xlink="http://www.w3.org/1999/xlink" x="0px" y="0px" viewBox="0 0 899.7 800.8"
	 style="enable-background:new 0 0 899.7 800.8;" xml:space="preserve">
<style type="text/css">
	.st0{opacity:0.1;fill:#01C1C6;enable-background:new    ;}
	.st1{fill:none;stroke:#535461;stroke-width:1.4643;stroke-miterlimit:10;}
	.st2{fill:#01C1C6;}
	.st3{fill:none;stroke:#535461;stroke-width:2;stroke-miterlimit:10;}
	.st4{fill:url(#SVGID_1_);}
	.st5{fill:#F7F7FD;}
	.st6{fill:#E2E2EC;}
	.st7{fill:#FFFFFF;}
</style>
<path class="st0" d="M840,442.5c-34.7,60-28.2,141.7-13,206.2c5.1,21.6,11,44.4,6.6,68.5c-5.3,29.5-24.8,52.7-44.4,66
	c-35.9,24.2-76.8,23.5-106.6-1.8c-25.7-21.8-42.7-59.8-69-80.5c-43.9-34.5-104.3-13.6-156.7,18.7c-37.1,22.8-77.8,51.8-112.1,35.4
	c-24.1-11.5-39.1-44.1-46.1-79.5c-3.4-17.1-5.4-35.8-13.2-48.8c-4.6-7.7-11-12.9-17.6-17.2c-60.1-38.7-141.4-6.3-199.3-50.2
	C29.6,529.7,7.3,468.6,0,403.1s-1.3-135.4,6.2-204.3c5.4-49,12.6-101.4,36.7-141.3c25.4-42.2,65.6-61,100.4-57s65.1,27.6,91.2,56.5
	c32.6,36.1,62,82.2,104.2,93.8c28.7,7.9,60.1-1.3,90.7-6.4c51-8.7,101.4-6.2,151.3-2.9c47.8,3.1,96,7,140.5,25
	c31.5,12.8,55.8,39.3,85.2,56.6c19.2,11.3,40.8,12.7,58.7,27.7c22,18.5,41.1,52.6,32.3,95.7C889.1,387.4,858.4,410.7,840,442.5z"/>
<g>
	<path class="st1" d="M680.7,275c0,0,17.3-61.6,59.4-88.4c17.7-11.3,31.5-27.7,38.9-47.3c3.5-9.3,6.1-19,7.9-28.8"/>
	<path class="st2" d="M813.3,93.5c-4,6.4-27.1,17.6-27.1,17.6s0-25.7,4-32c3.8-6.5,12.2-8.6,18.7-4.7c6.5,3.8,8.6,12.2,4.7,18.7
		C813.5,93.1,813.4,93.3,813.3,93.5L813.3,93.5z"/>
	<path class="st2" d="M810.3,140.7c-6.8,3.2-32.3,0.1-32.3,0.1s14-21.5,20.8-24.7c6.7-3.3,14.9-0.6,18.2,6.1
		c3.3,6.7,0.6,14.9-6.1,18.2C810.7,140.5,810.5,140.6,810.3,140.7L810.3,140.7z"/>
	<path class="st2" d="M771.7,200.5c-7.5-0.7-27.9-16.3-27.9-16.3s23-11.5,30.4-10.8c7.5,0.8,12.8,7.6,12,15.1
		C785.4,195.7,779,201,771.7,200.5L771.7,200.5z"/>
	<path class="st2" d="M732.3,239.1c-7.5,0.6-30.3-11.3-30.3-11.3s20.7-15.2,28.2-15.8c7.5-0.5,14,5.1,14.5,12.6
		C745.2,232,739.7,238.5,732.3,239.1z"/>
	<path class="st2" d="M753,126.8c1.8,7.3,20.2,25.2,20.2,25.2s8-24.4,6.2-31.7c-1.8-7.3-9.2-11.8-16.5-10
		C755.7,112.1,751.2,119.5,753,126.8z"/>
	<path class="st2" d="M707.5,172.6c3.9,6.4,26.8,18,26.8,18s0.4-25.7-3.5-32.1c-4.1-6.3-12.5-8.2-18.8-4.1
		C705.9,158.3,703.9,166.3,707.5,172.6z"/>
	<path class="st2" d="M669.4,223.1c2.7,7,23.4,22.3,23.4,22.3s4.7-25.3,2-32.3c-2.8-7-10.7-10.4-17.7-7.6
		C670.1,208.4,666.7,216.2,669.4,223.1z"/>
</g>
<title>events</title>
<path class="st2" d="M315.1,638.6c0,0,16.2-48.2-86.6-106.3c0,0-104.3-30.4-93.7-134.9c0,0-120.3,88.1-38.9,200.4
	s151.6,87.8,151.6,87.8L315.1,638.6z"/>
<path class="st3" d="M283.8,660.4c0,0-50.1-54.2-98.2-75.1c-9.6-4.3-18.4-10.2-26.1-17.4c-30.6-28-44-70.2-36.1-111l11.5-59.5"/>
<linearGradient id="SVGID_1_" gradientUnits="userSpaceOnUse" x1="444.0615" y1="106.27" x2="444.0615" y2="768.8" gradientTransform="matrix(1 0 0 -1 0 802)">
	<stop  offset="0" style="stop-color:#808080;stop-opacity:0.25"/>
	<stop  offset="0.54" style="stop-color:#808080;stop-opacity:0.12"/>
	<stop  offset="1" style="stop-color:#808080;stop-opacity:0.1"/>
</linearGradient>
<rect x="158.8" y="33.2" class="st4" width="570.6" height="662.5"/>
<rect x="165.4" y="40.9" class="st5" width="557.3" height="647.1"/>
<rect x="199.1" y="113.8" class="st6" width="140.9" height="11.2"/>
<rect x="199.1" y="141.3" class="st6" width="240.6" height="11.2"/>
<rect x="596" y="103.1" class="st7" width="100" height="86.3"/>
<path class="st6" d="M695.5,103.6v85.3h-99v-85.3H695.5 M696.5,102.6h-101v87.3h101V102.6z"/>
<rect x="495.1" y="103.1" class="st7" width="100" height="86.3"/>
<path class="st6" d="M594.5,103.6v85.3h-99v-85.3H594.5 M595.5,102.6h-101v87.3h101V102.6z"/>
<rect x="596" y="190.4" class="st7" width="100" height="86.3"/>
<path class="st6" d="M695.5,190.9v85.3h-99v-85.3H695.5 M696.5,189.9h-101v87.3h101V189.9z"/>
<rect x="495.1" y="190.4" class="st7" width="100" height="86.3"/>
<path class="st6" d="M594.5,190.9v85.3h-99v-85.3H594.5 M595.5,189.9h-101v87.3h101V189.9z"/>
<rect x="394.1" y="190.4" class="st7" width="100" height="86.3"/>
<path class="st6" d="M493.6,190.9v85.3h-99v-85.3H493.6 M494.6,189.9h-101v87.3h101V189.9z"/>
<rect x="293.1" y="190.4" class="st7" width="100" height="86.3"/>
<path class="st6" d="M392.6,190.9v85.3h-99v-85.3H392.6 M393.6,189.9h-101v87.3h101V189.9z"/>
<rect x="192.1" y="190.4" class="st7" width="100" height="86.3"/>
<path class="st6" d="M291.6,190.9v85.3h-99v-85.3H291.6 M292.6,189.9h-101v87.3h101V189.9z"/>
<rect x="596" y="277.7" class="st7" width="100" height="86.3"/>
<path class="st6" d="M695.5,278.2v85.3h-99v-85.3H695.5 M696.5,277.2h-101v87.3h101V277.2z"/>
<rect x="495.1" y="277.7" class="st7" width="100" height="86.3"/>
<path class="st6" d="M594.5,278.2v85.3h-99v-85.3H594.5 M595.5,277.2h-101v87.3h101V277.2z"/>
<rect x="394.1" y="277.7" class="st7" width="100" height="86.3"/>
<path class="st6" d="M493.6,278.2v85.3h-99v-85.3H493.6 M494.6,277.2h-101v87.3h101V277.2z"/>
<rect x="293.1" y="277.7" class="st7" width="100" height="86.3"/>
<path class="st6" d="M392.6,278.2v85.3h-99v-85.3H392.6 M393.6,277.2h-101v87.3h101V277.2z"/>
<rect x="192.1" y="277.7" class="st7" width="100" height="86.3"/>
<path class="st6" d="M291.6,278.2v85.3h-99v-85.3H291.6 M292.6,277.2h-101v87.3h101V277.2z"/>
<rect x="596" y="365" class="st7" width="100" height="86.3"/>
<path class="st6" d="M695.5,365.5v85.3h-99v-85.3H695.5 M696.5,364.5h-101v87.3h101V364.5z"/>
<rect x="495.1" y="365" class="st7" width="100" height="86.3"/>
<path class="st6" d="M594.5,365.5v85.3h-99v-85.3H594.5 M595.5,364.5h-101v87.3h101V364.5z"/>
<rect x="394.1" y="365" class="st7" width="100" height="86.3"/>
<path class="st6" d="M493.6,365.5v85.3h-99v-85.3H493.6 M494.6,364.5h-101v87.3h101V364.5z"/>
<rect x="293.1" y="365" class="st7" width="100" height="86.3"/>
<path class="st6" d="M392.6,365.5v85.3h-99v-85.3H392.6 M393.6,364.5h-101v87.3h101V364.5z"/>
<rect x="192.1" y="365" class="st7" width="100" height="86.3"/>
<path class="st6" d="M291.6,365.5v85.3h-99v-85.3H291.6 M292.6,364.5h-101v87.3h101V364.5z"/>
<rect x="596" y="452.2" class="st7" width="100" height="86.3"/>
<path class="st6" d="M695.5,452.7V538h-99v-85.3H695.5 M696.5,451.7h-101V539h101V451.7z"/>
<rect x="495.1" y="452.2" class="st7" width="100" height="86.3"/>
<path class="st6" d="M594.5,452.7V538h-99v-85.3H594.5 M595.5,451.7h-101V539h101V451.7z"/>
<rect x="394.1" y="452.2" class="st7" width="100" height="86.3"/>
<path class="st6" d="M493.6,452.7V538h-99v-85.3H493.6 M494.6,451.7h-101V539h101V451.7z"/>
<rect x="293.1" y="452.2" class="st7" width="100" height="86.3"/>
<path class="st6" d="M392.6,452.7V538h-99v-85.3H392.6 M393.6,451.7h-101V539h101V451.7z"/>
<rect x="192.1" y="452.2" class="st7" width="100" height="86.3"/>
<path class="st6" d="M291.6,452.7V538h-99v-85.3H291.6 M292.6,451.7h-101V539h101V451.7z"/>
<rect x="596" y="539.5" class="st7" width="100" height="86.3"/>
<path class="st6" d="M695.5,540v85.3h-99V540H695.5 M696.5,539h-101v87.3h101V539z"/>
<rect x="495.1" y="539.5" class="st7" width="100" height="86.3"/>
<path class="st6" d="M594.5,540v85.3h-99V540H594.5 M595.5,539h-101v87.3h101V539z"/>
<rect x="394.1" y="539.5" class="st7" width="100" height="86.3"/>
<path class="st6" d="M493.6,540v85.3h-99V540H493.6 M494.6,539h-101v87.3h101V539z"/>
<rect x="293.1" y="539.5" class="st7" width="100" height="86.3"/>
<path class="st6" d="M392.6,540v85.3h-99V540H392.6 M393.6,539h-101v87.3h101V539z"/>
<rect x="192.1" y="539.5" class="st7" width="100" height="86.3"/>
<path class="st6" d="M291.6,540v85.3h-99V540H291.6 M292.6,539h-101v87.3h101V539z"/>
<path class="st2" d="M402.1,704.9c2.9-2.2,5.5-4.7,6.4-7.8c0.9-3.4-1.1-6.9-4.5-8c-4.1-1.3-8.5,1-11.8,3.4s-7.1,5-11.5,4.5
	c4.5-3.3,6.6-8.5,5.4-13.3c-0.2-1-0.7-2-1.5-2.7c-2.3-2-6.4-1.1-9.1,0.4c-8.7,5-11.1,14.5-11.1,23.2c-0.9-3.1-0.1-6.3-0.2-9.5
	s-1.1-6.7-4.4-8.5c-2.1-0.9-4.4-1.4-6.7-1.3c-3.9-0.1-8.2,0.2-10.9,2.5c-3.3,2.9-2.4,7.7,0.4,10.9s7.2,5.2,11.3,7.3
	c3.1,1.7,6.2,3.6,8,6.3c0.2,0.3,0.4,0.7,0.6,1.1H387C392.4,711.2,397.4,708.3,402.1,704.9z"/>
<circle class="st2" cx="406.6" cy="288" r="5.7"/>
<circle class="st2" cx="420.8" cy="288" r="5.7"/>
<circle class="st2" cx="610.7" cy="203.5" r="5.7"/>
<circle class="st2" cx="624.9" cy="203.5" r="5.7"/>
<circle class="st2" cx="639.2" cy="203.5" r="5.7"/>
<circle class="st2" cx="653.4" cy="203.5" r="5.7"/>
<circle class="st2" cx="610.7" cy="380.1" r="5.7"/>
<circle class="st2" cx="624.9" cy="380.1" r="5.7"/>
<circle class="st2" cx="639.2" cy="380.1" r="5.7"/>
<circle class="st2" cx="653.4" cy="380.1" r="5.7"/>
</svg>
