<?xml version="1.0" encoding="utf-8"?>
<!-- Generator: Adobe Illustrator 21.0.0, SVG Export Plug-In . SVG Version: 6.00 Build 0)  -->
<svg version="1.1" id="d6147fb8-5a87-4dd3-b5f0-ace64eac798a"
	 xmlns="http://www.w3.org/2000/svg" xmlns:xlink="http://www.w3.org/1999/xlink" x="0px" y="0px" viewBox="0 0 907 810.1"
	 style="enable-background:new 0 0 907 810.1;" xml:space="preserve">
<style type="text/css">
	.st0{opacity:0.1;fill:#01C1C6;enable-background:new    ;}
	.st1{fill:#EBECF0;}
	.st2{fill:#F8F9FA;}
	.st3{opacity:0.5;fill:#01C1C6;enable-background:new    ;}
	.st4{fill:#01C1C6;}
	.st5{fill:none;stroke:#535461;stroke-miterlimit:10;}
	.st6{fill:none;stroke:#535461;stroke-width:2;stroke-miterlimit:10;}
	.st7{opacity:0.25;enable-background:new    ;}
	.st8{fill:#DBACA2;}
	.st9{fill:#E8C2B8;}
	.st10{opacity:0.1;enable-background:new    ;}
	.st11{opacity:5.000000e-02;enable-background:new    ;}
</style>
<title>sleep analysis</title>
<path class="st0" d="M851.9,507.8c-31.7,33.8-29.1,94.1-18.4,144.3c3.6,16.8,7.8,34.7,3.2,50.8c-5.6,19.7-23,31.2-40.3,35.5
	c-31.4,7.8-66.4-3.5-90.9-29.4c-21.2-22.4-34.3-54.2-56-75.9c-36.3-36.4-88.5-37.3-134.4-28c-32.4,6.6-68.3,16.5-96.9-4.3
	c-20.2-14.6-31.8-41.9-36.5-69.1c-2.3-13.1-3.4-27.1-9.5-38.4c-3.7-6.8-8.9-12.2-14.4-16.9c-49.9-43.6-120.4-41.9-168.3-88.7
	c-32.3-31.6-49.2-81.3-53.1-130.1c-3.9-48.8,3.7-97.4,12.6-144.8c6.3-33.7,14.4-69.3,36.3-91.5C208.5-2.2,243.4-5.1,273,7
	c29.6,12,54.6,37,75.8,64.6c26.5,34.5,50,75.3,85.6,94.8c24.3,13.3,51.4,15,77.6,19.4c43.9,7.3,86.7,22.4,129.2,37.9
	c40.7,14.9,81.6,30.4,119,55.1c26.5,17.5,46.2,42.9,70.7,63c16,13.1,34.4,19.9,49.1,35.3c18.1,19.1,33.2,48.5,24.1,77.1
	C895.7,481.3,868.7,489.9,851.9,507.8z"/>
<g>
	<rect x="372.9" y="149.7" class="st1" width="277.4" height="8.9"/>
	<rect x="372.9" y="158.7" class="st2" width="277.4" height="147.3"/>
	<path class="st3" d="M648.5,203.6c-4.3,0.8-8,2.9-11.8,4.8c-5,2.5-8.9,3.2-14.4,1.6c-3.4-1-7.3-1.9-10.6-0.1
		c-4.2,2.2-4.7,8.2-10.8,6.3c-2.1-0.6-3,2.7-0.9,3.3c3.6,1.2,7.6,0.1,10.2-2.8c1.9-2.2,2.6-4.3,6-4.4c2.6-0.1,5.1,1,7.6,1.6
		c9.9,2.4,16.6-5.4,25.7-7.1C651.5,206.5,650.6,203.2,648.5,203.6z"/>
	<path class="st4" d="M600.6,216.5c-9.5-1-19-1.9-28.5-0.7c-8.6,1.1-16,4.5-23.5,8.7s-14.9,8.3-23.6,7.9s-16.6-4-25-5.3
		c-8.1-1.2-14.4,0.6-21,5.3c-3.9,2.8-7.6,4.8-12.5,5.2c-4.3,0.4-8.5-0.1-12.8-0.2c-7.2-0.2-14.3,2-20.1,6.3c-5.5,4-10.3,9-16.2,12.6
		c-7.5,4.5-14.6,3.7-21.9-0.8c-6.6-4-12.6-9.2-20.7-9.6c-2.2-0.1-2.2,3.4,0,3.4c7.6,0.3,13.5,5.9,19.8,9.6
		c5.6,3.3,11.8,5.1,18.2,3.2c12.9-3.8,20.1-17.8,33.4-20.7c8.7-1.9,17.8,1.3,26.4-1.5c3.8-1.2,6.8-3.6,10-5.8
		c3.4-2.5,7.6-3.9,11.9-4c8.5,0,16.5,3.7,24.8,5.1c7.6,1.3,15.4,0.3,22.3-3.1c8.8-4,16.7-9.9,26.3-12c10.8-2.4,22-1.2,32.9-0.1
		C602.8,220.2,602.8,216.8,600.6,216.5z"/>
	<circle class="st4" cx="600.8" cy="216.5" r="6.9"/>
</g>
<circle class="st2" cx="534.8" cy="153.9" r="2.1"/>
<circle class="st2" cx="540.3" cy="153.9" r="2.1"/>
<circle class="st2" cx="545.8" cy="153.9" r="2.1"/>
<path class="st4" d="M7.1,539.3c0,0-49.6,77.4,112.9,78.8c0,0,2.4-67.4-50.7-95.1c-21.4-11.2-47.8-4.7-61.4,15.2L7.1,539.3z"/>
<path class="st5" d="M7.5,538c0,0,83.2,16.4,112.6,80.1"/>
<path class="st6" d="M127.3,607.6c0,0-53.4-69.1-48.6-137.1c2-28.6-4.7-57.1-20.2-81.2c-7.4-11.4-15.8-22.1-25.1-32"/>
<path class="st4" d="M36.2,314.4c3.7,9.6-2.8,44-2.8,44s-28.1-21-31.9-30.5c-4-9.4,0.3-20.4,9.8-24.4s20.4,0.3,24.4,9.8
	C35.9,313.6,36.1,314,36.2,314.4z"/>
<path class="st4" d="M85.5,356.1c-2.1,10.1-26.3,35.5-26.3,35.5s-12.2-32.9-10.2-43c1.8-10.1,11.5-16.8,21.6-15
	c10.1,1.8,16.8,11.5,15,21.6C85.7,355.5,85.6,355.8,85.5,356.1L85.5,356.1z"/>
<path class="st4" d="M119.6,447.1c-6.9,7.6-40.6,17.4-40.6,17.4s6.1-34.6,12.9-42.2c7-7.5,18.7-8,26.3-1.1
	C125.6,428.1,126.2,439.6,119.6,447.1z"/>
<path class="st4" d="M129.9,521.8c-5.5,8.7-37.1,24-37.1,24s0.1-35.1,5.6-43.8c5.3-8.8,16.7-11.6,25.5-6.4
	c8.8,5.3,11.6,16.7,6.4,25.5C130.2,521.4,130,521.6,129.9,521.8L129.9,521.8z"/>
<path class="st4" d="M23.6,407.7c9.5,4,44.1-1.6,44.1-1.6s-20.2-28.7-29.6-32.7c-9.5-4-20.4,0.4-24.4,9.9
	C9.7,392.7,14.1,403.7,23.6,407.7z"/>
<path class="st4" d="M36.8,494.8c10.2,1,41.6-14.7,41.6-14.7s-27.9-21.3-38.1-22.3c-10.2-1.2-19.5,6-20.7,16.2
	c-1.2,10.2,6,19.5,16.2,20.7C36.1,494.8,36.4,494.8,36.8,494.8L36.8,494.8z"/>
<path class="st4" d="M61.2,577.8c9.9,2.7,43.5-7.5,43.5-7.5s-23.9-25.7-33.8-28.4c-9.9-2.9-20.2,2.8-23,12.6
	c-2.9,9.9,2.8,20.2,12.6,23C60.7,577.7,60.9,577.7,61.2,577.8L61.2,577.8z"/>
<path class="st7" d="M36.2,314.4c3.7,9.6-2.8,44-2.8,44s-28.1-21-31.9-30.5c-4-9.4,0.3-20.4,9.8-24.4s20.4,0.3,24.4,9.8
	C35.9,313.6,36.1,314,36.2,314.4z"/>
<path class="st7" d="M85.5,356.1c-2.1,10.1-26.3,35.5-26.3,35.5s-12.2-32.9-10.2-43c1.8-10.1,11.5-16.8,21.6-15
	c10.1,1.8,16.8,11.5,15,21.6C85.7,355.5,85.6,355.8,85.5,356.1L85.5,356.1z"/>
<path class="st7" d="M119.6,447.1c-6.9,7.6-40.6,17.4-40.6,17.4s6.1-34.6,12.9-42.2c7-7.5,18.7-8,26.3-1.1
	C125.6,428.1,126.2,439.6,119.6,447.1z"/>
<path class="st7" d="M129.9,521.8c-5.5,8.7-37.1,24-37.1,24s0.1-35.1,5.6-43.8c5.3-8.8,16.7-11.6,25.5-6.4
	c8.8,5.3,11.6,16.7,6.4,25.5C130.2,521.4,130,521.6,129.9,521.8L129.9,521.8z"/>
<path class="st7" d="M23.6,407.7c9.5,4,44.1-1.6,44.1-1.6s-20.2-28.7-29.6-32.7c-9.5-4-20.4,0.4-24.4,9.9
	C9.7,392.7,14.1,403.7,23.6,407.7z"/>
<path class="st7" d="M36.8,494.8c10.2,1,41.6-14.7,41.6-14.7s-27.9-21.3-38.1-22.3c-10.2-1.2-19.5,6-20.7,16.2
	c-1.2,10.2,6,19.5,16.2,20.7C36.1,494.8,36.4,494.8,36.8,494.8L36.8,494.8z"/>
<path class="st7" d="M61.2,577.8c9.9,2.7,43.5-7.5,43.5-7.5s-23.9-25.7-33.8-28.4c-9.9-2.9-20.2,2.8-23,12.6
	c-2.9,9.9,2.8,20.2,12.6,23C60.7,577.7,60.9,577.7,61.2,577.8L61.2,577.8z"/>
<path class="st0" d="M355.4,357.4c-13.9-0.6-28.9,0.7-40,10.8c-20.5,18.7-17.8,56.5-31.2,82.8c-11.3,22.2-32.9,33.7-53.9,41.1
	c-34.1,12-70,16.5-103.9,29.3c-20,7.6-39.8,18.6-53.5,37.5S53.1,606,62.4,628.3c8.6,20.7,27.4,31.7,44.6,42.4
	c17.2,10.7,35.4,24.7,40.2,47c2.7,12.4,0.7,25.8,3.8,38.1c6.1,24.2,29.1,35.6,49.7,41.8c16.5,4.9,33.2,8.6,50.1,10.8
	c13.5,1.8,27.3,2.8,40.5-0.8c11.5-3.1,22.1-9.5,33.1-14.4c69.8-31.3,150.2-4.2,221.4-30.8c13-4.8,25.7-11.6,35.5-22.6
	c7.3-8.2,12.8-18.5,17.3-29.1c11.6-27,18-57.3,18.5-87.7c0.3-18.2-1.5-36.6,1.2-54.6c2.8-18.7,10.4-35.8,14.4-54.2
	c7.3-33.4,2.2-70.3-13.8-99.1c-5.7-10.6-12.7-18.6-20.4-23.3c-6.5-3.8-13.7-5.3-20.8-6.8c-19.8-4-39.9-7.9-59.8-5.7
	c-14.2,1.6-28.1,6.3-42.4,7.2c-20,1.2-35.7-7.3-53.8-15.3C401,362.2,377.5,358.3,355.4,357.4z"/>
<polygon class="st8" points="120.1,270.6 120.1,538.1 476,468.9 469.2,263.8 "/>
<polygon class="st9" points="789.1,586 789.1,674.4 412.8,784.3 409,782.3 111.4,627.9 111.4,262.4 479.7,250.5 482,453.3 
	467.2,457.9 461.6,268.1 137.4,279.4 135.2,554.2 417.4,677.8 417.6,677.7 "/>
<polygon class="st10" points="789.1,586 789.1,674.4 412.8,784.3 409,782.3 417.6,677.7 "/>
<path class="st1" d="M335.5,457.6c0,0-182.2,18.2-199.9,44.5c-17.7,26.3-0.1,58.6-0.1,58.6l281.6,122.4L799,584.5
	c0,0-10.2-69.1-41.9-77.1c-31.7-7.9-284.5-62.3-284.5-62.3S370.6,438.9,335.5,457.6z"/>
<path class="st2" d="M135.4,502.4l287.3,99.2c0,0,306.5-92.9,349.9-84.2c0,0-214.4-76.7-300-73.4c-68.2,2.7-139.7,13.9-139.7,13.9
	S143.4,476.9,135.4,502.4z"/>
<path class="st11" d="M437.4,441.4c0,0,28-13.5,46.8-12.2s22.1-10.5,22.1-10.5"/>
<path class="st4" d="M316.2,779c-2.3-2.2-4.5-4.7-5.2-7.8c-0.7-3.1,0.7-6.8,3.6-8c3.3-1.3,6.9,1,9.6,3.4s5.8,5,9.3,4.5
	c-3.7-3.4-5.4-8.4-4.4-13.3c0.2-1,0.6-1.9,1.2-2.7c1.8-2,5.2-1.1,7.4,0.4c7,5,9,14.5,9,23.2c0.7-3.1,0.1-6.3,0.1-9.5
	s0.9-6.7,3.6-8.4c1.7-0.9,3.6-1.3,5.5-1.3c3.2-0.1,6.7,0.2,8.9,2.5c2.7,2.9,2,7.7-0.3,10.9c-2.4,3.2-5.9,5.2-9.2,7.3
	c-2.6,1.6-4.9,3.7-6.5,6.3c-0.2,0.4-0.4,0.7-0.5,1.1h-19.8C324.1,785.2,319.9,782.4,316.2,779z"/>
<path class="st4" d="M774.8,689.8c-1.5-1.3-2.7-3-3.2-4.9c-0.4-1.9,0.4-4.3,2.3-5c2.1-0.8,4.3,0.6,6,2.1s3.6,3.1,5.8,2.8
	c-2.3-2.1-3.3-5.2-2.7-8.3c0.1-0.6,0.4-1.2,0.8-1.7c1.2-1.2,3.2-0.7,4.6,0.3c4.4,3.1,5.6,9,5.6,14.4c0.4-1.9,0.1-4,0.1-5.9
	s0.5-4.2,2.2-5.2c1-0.6,2.2-0.8,3.4-0.8c2-0.1,4.2,0.1,5.5,1.6c1.7,1.8,1.2,4.8-0.2,6.8s-3.7,3.2-5.7,4.6c-1.6,1-3,2.3-4.1,3.9
	c-0.1,0.2-0.2,0.5-0.3,0.7h-12.4C779.6,693.7,777.1,691.9,774.8,689.8z"/>
</svg>
