<?xml version="1.0" encoding="utf-8"?>
<!-- Generator: Adobe Illustrator 21.0.0, SVG Export Plug-In . SVG Version: 6.00 Build 0)  -->
<svg version="1.1" id="_x35_9904e4f-d552-4f96-882a-6a294bb87dd0"
	 xmlns="http://www.w3.org/2000/svg" xmlns:xlink="http://www.w3.org/1999/xlink" x="0px" y="0px" viewBox="0 0 1027 796.5"
	 style="enable-background:new 0 0 1027 796.5;" xml:space="preserve">
<style type="text/css">
	.st0{opacity:0.1;fill:#01C1C6;enable-background:new    ;}
	.st1{fill:#01C1C6;}
	.st2{fill:#444053;}
	.st3{opacity:0.7;}
	.st4{opacity:0.1;enable-background:new    ;}
	.st5{fill:#FFFFFF;}
	.st6{opacity:0.3;fill:#01C1C6;enable-background:new    ;}
	.st7{opacity:0.3;enable-background:new    ;}
	.st8{fill:none;}
</style>
<title>to do list</title>
<path class="st0" d="M317.1,40.2C351.9,4.9,406.6-2.3,456.4,0.6C612.8,9.4,754,95.1,876.1,192.2c44.2,35.1,87.7,73,116.4,121.3
	c58.4,98.5,41.1,234.8-40.1,315.9c-27.6,27.6-61.1,48.8-95.5,67.5c-61.1,33.3-127.1,60.1-196.5,67.7c-49.5,5.4-99.6,1-148.8-6.6
	c-137.5-21.2-272.4-68-385.5-148.1C76.4,574.8,29.7,531.1,9.2,474.2S1.9,345.3,52.5,311.7c21-13.9,46-20.2,70.5-26.1
	c36.1-8.7,72.8-17.3,105.3-34.9c33.6-18.2,73.5-53.5,66.8-93.9C288,113.5,282.3,75.4,317.1,40.2z"/>
<path class="st1" d="M256.7,447.8c0,0,10.4-7.4,21.1-2.8c0,0-3,6.4-16.4,6.3L256.7,447.8z"/>
<path class="st1" d="M255.4,448.2c0,0-2.8,12.5,5.7,20.5c0,0,4.7-5.3-0.6-17.5L255.4,448.2z"/>
<path class="st1" d="M241.7,436.9c0,0,0.4-10.5,24.2-7.9c0,0,0.4,6.8-7.8,10.3C249.9,442.8,246,440.2,241.7,436.9z"/>
<path class="st1" d="M240.2,436.9c0,0-9.9,3.6-0.1,25.5c0,0,6.5-1.7,7.4-10.6S244.7,439.9,240.2,436.9z"/>
<path class="st1" d="M226.3,422.5c0,0-2-17.2,22.2-16.4c0,0,2.3,15.5-17.8,20.3L226.3,422.5z"/>
<path class="st1" d="M209.5,403.7c0,0,2.6-19.7,27-14.8c0,0,0.7,16.9-22.8,19.3L209.5,403.7z"/>
<path class="st1" d="M197.1,384c0,0,4.8-19.3,29-14.5c0,0-5,17.4-27.3,17.9L197.1,384z"/>
<path class="st1" d="M185.2,364.8c0,0,4.7-20,28-14.9c0,0-7,19.1-26.4,18.2L185.2,364.8z"/>
<path class="st1" d="M177.4,346.4c0,0,3.3-24.3,25-19.8c0,0-5.4,22.2-23.3,23.3L177.4,346.4z"/>
<path class="st1" d="M169.8,324c0,0,4.1-24.5,26.1-18.3c0,0-7.7,23.4-24.5,21.6L169.8,324z"/>
<path class="st1" d="M164.8,303.2c0,0,7-24.7,23.9-24.6c0,0-7.1,26-22.3,29.5L164.8,303.2z"/>
<path class="st1" d="M161.4,282.8c0,0,7.5-29.7,21.4-27.9c0,0-5.1,22.6-20.7,32.5L161.4,282.8z"/>
<path class="st1" d="M159,258.4c0,0,7.2-24.7,20.7-26.2c0,0-4.6,24.2-20.1,32.6L159,258.4z"/>
<path class="st1" d="M156.5,235.7c0,0,9.2-24.9,18.1-25.8c0,0-3.5,24.3-17.1,29.7L156.5,235.7z"/>
<path class="st1" d="M154.5,214.5c0,0,5.2-26.8,14.1-29.4c0,0-0.4,21.8-13.1,31.3L154.5,214.5z"/>
<path class="st1" d="M150.1,186.9c0,0,5.7-21.4,12.9-24.9c0,0-0.5,25-11,30L150.1,186.9z"/>
<path class="st1" d="M146.6,168.7l-2.8-37.3c0,0,14.6,27.7,4,43.8L146.6,168.7z"/>
<path class="st1" d="M134.7,132c0,0-10.8-26.9-13.2-28.3c0,0,19.8,17,18.8,39.8L134.7,132z"/>
<path class="st1" d="M225.6,422.4c0,0-17.3-1.6-15.8,22.6c0,0,15.6,1.9,19.9-18.3L225.6,422.4z"/>
<path class="st1" d="M208.7,403.1c0,0-19.8,0.7-17.3,25.4c0,0,16.8,2.3,21.4-20.9L208.7,403.1z"/>
<path class="st1" d="M196.9,385.6c0,0-18.3-7.8-29,14.5c0,0,16.9,6.4,30.7-11L196.9,385.6z"/>
<path class="st1" d="M184.8,365c0,0-18.8-8.3-28.8,13.4c0,0,19.4,5.9,30.4-10.1L184.8,365z"/>
<path class="st1" d="M177.6,346.9c0,0-18.4-16.3-31.9,1.4c0,0,18.6,13.2,32.8,2.3L177.6,346.9z"/>
<path class="st1" d="M170.8,323.4c0,0-18.5-16.6-31.9,2c0,0,20.6,13.5,32.6,1.6L170.8,323.4z"/>
<path class="st1" d="M166.6,302.4c0,0-14.6-21.1-30.6-15.7c0,0,15.1,22.4,30.6,20.8L166.6,302.4z"/>
<path class="st1" d="M161.8,282.7c0,0-14.9-26.7-27.8-21.5c0,0,10.8,20.6,28.3,26L161.8,282.7z"/>
<path class="st1" d="M159.9,257c0,0-15.1-20.9-28.3-17.8c0,0,12.5,21.3,29.9,23.9L159.9,257z"/>
<path class="st1" d="M157.9,235.1c0,0-11.9-23.6-20.9-23.5c0,0,6.2,23.7,20.3,27.6L157.9,235.1z"/>
<path class="st1" d="M154.9,214c0,0-13.2-23.9-22.4-23.6c0,0,7.1,20.6,22.1,25.8L154.9,214z"/>
<path class="st1" d="M152.1,188.2c0,0-9.9-19.8-17.6-21.8c0,0,5.5,24.4,16.8,27.2L152.1,188.2z"/>
<path class="st1" d="M145.5,168.1l-21.7-30.4c0,0,6.4,30.6,24.9,36.3L145.5,168.1z"/>
<path class="st1" d="M130.1,134.7c0,0-24.4-15.5-25.4-18.2c0,0,13,22.6,35.7,25.8L130.1,134.7z"/>
<path class="st1" d="M128.4,127.4c0,0-28.4-25.3-35.3-24.9c0,0,22.6,0.2,36,23.5L128.4,127.4z"/>
<path class="st2" d="M152,192.2l-1,0.2c-6.7-40.1-15.1-63.5-23.7-66.2l0.3-1C136.7,128,145.2,151.2,152,192.2z"/>
<path class="st2" d="M163.3,288.1l-1.5,0.2c-0.5-3.7-0.9-7.6-1.2-11.4c-2.7-33.2-6.1-63.7-9.9-86.6l0.8-1.1
	c3.8,22.9,7.9,54.3,10.6,87.6C162.4,280.6,162.8,284.4,163.3,288.1z"/>
<path class="st2" d="M285.5,465.9c-0.3-0.1-27.2-10.9-55.8-38.1c-16.7-15.9-30.9-34.4-41.8-54.7c-13.7-25.4-22.7-57-26.5-87.8
	l1.6,0.7c8.5,69.2,41.9,115.4,68,140.3c28.3,26.9,55,37.7,55.3,37.8L285.5,465.9z"/>
<g class="st3">
	<path class="st1" d="M298.5,384.4c0,0,12.1-4,21,3.6c0,0-4.8,5.2-17.5,1.1L298.5,384.4z"/>
	<path class="st1" d="M297.2,384.5c0,0-6.3,11.1-0.7,21.3c0,0,6-3.6,4.6-16.9L297.2,384.5z"/>
	<path class="st1" d="M287.5,369.6c0,0,3.5-9.9,25.5-0.4c0,0-1.6,6.6-10.5,7.5S290.6,374,287.5,369.6z"/>
	<path class="st1" d="M286.1,369.1c0,0-10.5,0.5-7.7,24.3c0,0,6.8,0.3,10.2-7.9S289.4,373.4,286.1,369.1z"/>
	<path class="st1" d="M277,351.2c0,0,3.2-17,26.1-9c0,0-2.4,15.5-23,14.1L277,351.2z"/>
	<path class="st1" d="M266.6,328.2c0,0,8.3-18,30.1-6.1c0,0-4.3,16.4-27.5,11.6L266.6,328.2z"/>
	<path class="st1" d="M260.6,305.8c0,0,10.4-17,32-5.2c0,0-10,15.1-31.4,9L260.6,305.8z"/>
	<path class="st1" d="M255,283.9c0,0,10.4-17.7,31.2-5.9c0,0-12.4,16.1-30.6,9.6L255,283.9z"/>
	<path class="st1" d="M253,264c0,0,10.3-22.3,29.8-11.5c0,0-11.8,19.6-29.2,15.3L253,264z"/>
	<path class="st1" d="M252.4,240.4c0,0,11.2-22.2,30.4-9.7c0,0-14.3,20-29.8,13.3L252.4,240.4z"/>
	<path class="st1" d="M253.9,219.1c0,0,14-21.5,30.2-16.4c0,0-14.6,22.7-30.1,21.5L253.9,219.1z"/>
	<path class="st1" d="M256.7,198.6c0,0,16-26.1,28.7-20.3c0,0-11.6,20.1-29.4,24.8L256.7,198.6z"/>
	<path class="st1" d="M261.6,174.6c0,0,14.2-21.5,27.6-18.9c0,0-11.6,21.8-28.9,25.1L261.6,174.6z"/>
	<path class="st1" d="M266,152.1c0,0,16.1-21,25-19.2c0,0-10.5,22.1-25.1,23.3L266,152.1z"/>
	<path class="st1" d="M270.4,131.3c0,0,12.9-24,22.2-23.8c0,0-6.9,20.7-21.8,26L270.4,131.3z"/>
	<path class="st1" d="M274.4,103.6c0,0,11.9-18.7,19.7-20c0,0-7.9,23.7-19.4,25.4L274.4,103.6z"/>
	<path class="st1" d="M276.5,85.2l8.5-36.4c0,0,5.7,30.8-9.2,43L276.5,85.2z"/>
	<path class="st1" d="M276,46.7c0,0-2.3-28.9-4.2-31c0,0,13.9,22.1,6.1,43.6L276,46.7z"/>
	<path class="st1" d="M276.4,351c0,0-16-6.6-21.8,16.9c0,0,14.3,6.5,24.4-11.6L276.4,351z"/>
	<path class="st1" d="M266,327.4c0,0-19.1-5.2-24.1,19.2c0,0,15.3,7.2,26.6-13.6L266,327.4z"/>
	<path class="st1" d="M260,307.3c0,0-15.2-12.9-32,5.2c0,0,14.2,11.1,32.6-1.4L260,307.3z"/>
	<path class="st1" d="M254.6,284c0,0-15.5-13.5-31.5,4.3c0,0,16.8,11.4,32-0.6L254.6,284z"/>
	<path class="st1" d="M253.1,264.6c0,0-12.7-21-30.9-8.1c0,0,13.9,18.2,30.7,12L253.1,264.6z"/>
	<path class="st1" d="M253.5,240.1c0,0-12.7-21.4-31-7.5c0,0,15.6,19,30.7,11.2L253.5,240.1z"/>
	<path class="st1" d="M255.8,218.9c0,0-7.6-24.5-24.5-24c0,0,7.8,25.9,23.1,28.9L255.8,218.9z"/>
	<path class="st1" d="M257.1,198.6c0,0-6.3-29.9-20.2-28.8c0,0,4.2,22.8,19.3,33.3L257.1,198.6z"/>
	<path class="st1" d="M262.9,173.5c0,0-8.2-24.4-21.7-25.4c0,0,5.6,24.1,21.4,31.8L262.9,173.5z"/>
	<path class="st1" d="M267.5,152c0,0-4.4-26.1-13-28.7c0,0-1.1,24.5,11.2,32.4L267.5,152z"/>
	<path class="st1" d="M271,130.9c0,0-5.5-26.8-14.4-29.2c0,0,0.6,21.8,13.4,31.2L271,130.9z"/>
	<path class="st1" d="M275.9,105.6c0,0-3.6-21.9-10.3-26.1c0,0-2,24.9,8,31L275.9,105.6z"/>
	<path class="st1" d="M275.6,84.2l-11.7-35.5c0,0-3,31.1,13,42.1L275.6,84.2z"/>
	<path class="st1" d="M270.8,47.9c0,0-18.7-22.1-18.9-24.9c0,0,5.7,25.4,26.4,35.2L270.8,47.9z"/>
	<path class="st1" d="M271.4,40.4c0,0-19.6-32.5-26.3-34.3c0,0,21.5,6.9,27.3,33.2L271.4,40.4z"/>
	<path class="st2" d="M274.6,109.2l-1-0.1c5.5-40.2,4.5-65.2-2.9-70.2l0.6-0.8C279.2,43.4,280.3,68.1,274.6,109.2z"/>
	<path class="st2" d="M256.8,204.2l-1.5-0.3c0.7-3.7,1.4-7.5,2.3-11.2c7.3-32.6,13.1-62.7,16.3-85.6l1.1-0.8
		c-3.2,23-8.6,54.1-15.9,86.8C258.3,196.7,257.5,200.5,256.8,204.2z"/>
	<path class="st2" d="M320.7,410.3c-0.2-0.2-22.7-18.5-42-53c-11.3-20.2-19.2-42-23.7-64.7c-5.5-28.3-4.7-61.1,0.8-91.7l1.3,1.1
		c-12.5,68.6,5.7,122.7,23.2,154.2c19,34.1,41.3,52.3,41.5,52.5L320.7,410.3z"/>
</g>
<path class="st4" d="M714.1,701l-100.3,38.8l-146.6,56.7c-5.5-10.3-13.7-24.3-23.8-41c-34.7-57.5-92.2-147.1-143.3-225.7
	c-57.6-88.6-107.2-163.5-107.2-163.5l35.9-10.4L522,270.8L714.1,701z"/>
<path class="st5" d="M716.1,694l-100.3,38.8l-146.6,56.7c-5.5-10.3-13.7-24.3-23.8-41c-34.7-57.5-92.2-147.1-143.3-225.7
	c-57.6-88.6-107.2-163.5-107.2-163.5l35.9-10.4L524,263.8L716.1,694z"/>
<path class="st4" d="M716.1,694l-100.3,38.8c-56,11.7-113.2,16.9-170.4,15.7c-34.7-57.5-92.2-147.1-143.3-225.7l-71.3-173.9
	L524,263.8L716.1,694z"/>
<path class="st1" d="M790.7,669.9c0,0-155.8,92.2-388.5,71.4L216.7,289l88.9-15.3L612.9,221l174.3,440.1L790.7,669.9z"/>
<path class="st4" d="M787.2,661.1c-36.7,1.8-79.1,1.6-121.9-3.5c-46.2-5.4-92.7-16.6-132.6-37.2c-33.3-17.2-61.8-35.8-86.7-58.2
	C381.5,504.1,341.5,421,305.6,273.8L612.9,221L787.2,661.1z"/>
<path class="st5" d="M901.5,635.8c0,0-114.9,22.5-231.8,8.7c-46.2-5.5-92.7-16.6-132.6-37.2c-33.3-17.2-61.8-35.8-86.7-58.2
	c-80-72-122.2-182.2-165.8-404.9c0,0,191,46.1,379.7-54.9C664.5,89.3,728.1,486.6,901.5,635.8z"/>
<path class="st4" d="M669.8,644.5c-46.2-5.5-92.7-16.6-132.6-37.2c-33.3-17.2-61.8-35.8-86.7-58.2c68.1-5.5,77.9-42.8,77.9-42.8
	C578.9,586.5,669.8,644.5,669.8,644.5z"/>
<path class="st6" d="M380.6,230.1c0,0,124.2,8.5,238.8-48.4l8.5,20.9c0,0-109.8,48.6-246.6,52.1L380.6,230.1z"/>
<path class="st7" d="M383.2,334.4c0,0,123-11.4,258.7-69.7l4.9,8.7c0,0-49.1,53.9-263.2,73.1L383.2,334.4z"/>
<path class="st7" d="M398.9,374.7c0,0,123-11.4,258.7-69.7l4.9,8.7c0,0-49.1,53.9-263.2,73.1L398.9,374.7z"/>
<path class="st7" d="M413.4,418.2c0,0,123-11.4,258.7-69.7l4.9,8.7c0,0-49.2,53.9-263.2,73.1L413.4,418.2z"/>
<path class="st7" d="M430.2,455.3c0,0,123-11.4,258.7-69.7l4.9,8.7c0,0-49.1,53.9-263.2,73.1L430.2,455.3z"/>
<path class="st4" d="M445.8,495.7c0,0,123-11.4,258.7-69.7l4.9,8.7c0,0-49.1,53.9-263.2,73.1L445.8,495.7z"/>
<path class="st8" d="M933.2,525.1"/>
</svg>
